<?xml version="1.0" encoding="UTF-8" standalone="no"?>
<!-- Created with Inkscape (http://www.inkscape.org/) -->

<svg
   xmlns:dc="http://purl.org/dc/elements/1.1/"
   xmlns:cc="http://creativecommons.org/ns#"
   xmlns:rdf="http://www.w3.org/1999/02/22-rdf-syntax-ns#"
   xmlns:svg="http://www.w3.org/2000/svg"
   xmlns="http://www.w3.org/2000/svg"
   xmlns:sodipodi="http://sodipodi.sourceforge.net/DTD/sodipodi-0.dtd"
   xmlns:inkscape="http://www.inkscape.org/namespaces/inkscape"
   width="210mm"
   height="297mm"
   viewBox="0 0 744.09448819 1052.3622047"
   id="svg2"
   version="1.1"
   inkscape:version="0.91 r13725"
   sodipodi:docname="drawing.svg">
  <defs
     id="defs4">
    <inkscape:path-effect
       effect="spiro"
       id="path-effect4414"
       is_visible="true" />
    <inkscape:path-effect
       effect="spiro"
       id="path-effect4410"
       is_visible="true" />
    <inkscape:path-effect
       effect="spiro"
       id="path-effect4364"
       is_visible="true" />
    <inkscape:path-effect
       effect="spiro"
       id="path-effect4360"
       is_visible="true" />
    <inkscape:path-effect
       effect="spiro"
       id="path-effect4248"
       is_visible="true" />
    <inkscape:path-effect
       effect="spiro"
       id="path-effect4186"
       is_visible="true" />
    <inkscape:path-effect
       effect="spiro"
       id="path-effect4182"
       is_visible="true" />
    <inkscape:path-effect
       effect="spiro"
       id="path-effect4170"
       is_visible="true" />
    <inkscape:path-effect
       effect="spiro"
       id="path-effect4166"
       is_visible="true" />
    <inkscape:path-effect
       effect="spiro"
       id="path-effect4162"
       is_visible="true" />
    <inkscape:path-effect
       effect="spiro"
       id="path-effect4158"
       is_visible="true" />
    <inkscape:path-effect
       effect="spiro"
       id="path-effect4154"
       is_visible="true" />
    <inkscape:path-effect
       effect="spiro"
       id="path-effect4148"
       is_visible="true" />
    <inkscape:path-effect
       effect="spiro"
       id="path-effect4144"
       is_visible="true" />
    <inkscape:path-effect
       effect="spiro"
       id="path-effect4186-6"
       is_visible="true" />
    <inkscape:path-effect
       effect="spiro"
       id="path-effect4186-3"
       is_visible="true" />
    <inkscape:path-effect
       effect="spiro"
       id="path-effect4186-1"
       is_visible="true" />
    <inkscape:path-effect
       effect="spiro"
       id="path-effect4186-37"
       is_visible="true" />
    <inkscape:path-effect
       effect="spiro"
       id="path-effect4186-2"
       is_visible="true" />
    <inkscape:path-effect
       effect="spiro"
       id="path-effect4186-8"
       is_visible="true" />
    <inkscape:path-effect
       effect="spiro"
       id="path-effect4186-61"
       is_visible="true" />
    <inkscape:path-effect
       effect="spiro"
       id="path-effect4186-17"
       is_visible="true" />
    <inkscape:path-effect
       effect="spiro"
       id="path-effect4186-24"
       is_visible="true" />
    <inkscape:path-effect
       effect="spiro"
       id="path-effect4186-35"
       is_visible="true" />
    <inkscape:path-effect
       effect="spiro"
       id="path-effect4186-83"
       is_visible="true" />
    <inkscape:path-effect
       effect="spiro"
       id="path-effect4186-88"
       is_visible="true" />
    <inkscape:path-effect
       effect="spiro"
       id="path-effect4186-7"
       is_visible="true" />
    <inkscape:path-effect
       effect="spiro"
       id="path-effect4364-1"
       is_visible="true" />
    <inkscape:path-effect
       effect="spiro"
       id="path-effect4364-8"
       is_visible="true" />
    <inkscape:path-effect
       effect="spiro"
       id="path-effect4364-2"
       is_visible="true" />
    <inkscape:path-effect
       effect="spiro"
       id="path-effect4364-7"
       is_visible="true" />
  </defs>
  <sodipodi:namedview
     id="base"
     pagecolor="#ffffff"
     bordercolor="#666666"
     borderopacity="1.0"
     inkscape:pageopacity="0.0"
     inkscape:pageshadow="2"
     inkscape:zoom="1.1395821"
     inkscape:cx="596.90929"
     inkscape:cy="480.80129"
     inkscape:document-units="px"
     inkscape:current-layer="layer1"
     showgrid="false"
     showguides="true"
     inkscape:guide-bbox="true"
     showborder="false"
     inkscape:window-width="1920"
     inkscape:window-height="1017"
     inkscape:window-x="-8"
     inkscape:window-y="-8"
     inkscape:window-maximized="1" />
  <metadata
     id="metadata7">
    <rdf:RDF>
      <cc:Work
         rdf:about="">
        <dc:format>image/svg+xml</dc:format>
        <dc:type
           rdf:resource="http://purl.org/dc/dcmitype/StillImage" />
        <dc:title></dc:title>
      </cc:Work>
    </rdf:RDF>
  </metadata>
  <g
     inkscape:label="Layer 1"
     inkscape:groupmode="layer"
     id="layer1">
    <path
       style="fill:none;fill-rule:evenodd;stroke:#000000;stroke-width:1px;stroke-linecap:butt;stroke-linejoin:miter;stroke-opacity:1"
       d=""
       id="path4146"
       inkscape:path-effect="#path-effect4148"
       inkscape:original-d="M 400,715.21935 Z"
       inkscape:connector-curvature="0" />
    <path
       style="fill:none;fill-rule:evenodd;stroke:#000000;stroke-width:1px;stroke-linecap:butt;stroke-linejoin:miter;stroke-opacity:1"
       d=""
       id="path4152"
       inkscape:path-effect="#path-effect4154"
       inkscape:original-d="M 172.85714,715.21935 Z"
       inkscape:connector-curvature="0" />
    <path
       style="fill:none;fill-rule:evenodd;stroke:#000000;stroke-width:1px;stroke-linecap:butt;stroke-linejoin:miter;stroke-opacity:1"
       d=""
       id="path4160"
       inkscape:path-effect="#path-effect4162"
       inkscape:original-d="M 328.92857,643.79078 Z"
       inkscape:connector-curvature="0" />
    <path
       style="fill:none;fill-rule:evenodd;stroke:#000000;stroke-width:1px;stroke-linecap:butt;stroke-linejoin:miter;stroke-opacity:1"
       d=""
       id="path4168"
       inkscape:path-effect="#path-effect4170"
       inkscape:original-d="M 247.14286,691.29078 Z"
       inkscape:connector-curvature="0" />
    <flowRoot
       xml:space="preserve"
       id="flowRoot4330"
       style="fill:black;stroke:none;stroke-opacity:1;stroke-width:1px;stroke-linejoin:miter;stroke-linecap:butt;fill-opacity:1;font-family:sans-serif;font-style:normal;font-weight:normal;font-size:40px;line-height:125%;letter-spacing:0px;word-spacing:0px"><flowRegion
         id="flowRegion4332"><rect
           id="rect4334"
           width="102.45882"
           height="194.56827"
           x="-304.27164"
           y="453.13333" /></flowRegion><flowPara
         id="flowPara4336"></flowPara></flowRoot>    <text
       xml:space="preserve"
       style="font-style:normal;font-variant:normal;font-weight:normal;font-stretch:normal;font-size:40px;line-height:125%;font-family:'Book Antiqua';-inkscape-font-specification:'Book Antiqua, Normal';text-align:start;letter-spacing:0px;word-spacing:0px;writing-mode:lr-tb;text-anchor:start;fill:#000000;fill-opacity:1;stroke:none;stroke-width:1px;stroke-linecap:butt;stroke-linejoin:miter;stroke-opacity:1"
       x="-330.14508"
       y="509.01996"
       id="text4338"
       sodipodi:linespacing="125%"><tspan
         sodipodi:role="line"
         id="tspan4340"
         x="-330.14508"
         y="509.01996" /></text>
    <flowRoot
       xml:space="preserve"
       id="flowRoot4346"
       style="fill:black;stroke:none;stroke-opacity:1;stroke-width:1px;stroke-linejoin:miter;stroke-linecap:butt;fill-opacity:1;font-family:'Book Antiqua';font-style:normal;font-weight:normal;font-size:40px;line-height:125%;letter-spacing:0px;word-spacing:0px;-inkscape-font-specification:'Book Antiqua, Normal';font-stretch:normal;font-variant:normal;text-anchor:start;text-align:start;writing-mode:lr"><flowRegion
         id="flowRegion4348"><rect
           id="rect4350"
           width="197"
           height="424"
           x="-325"
           y="372.36221" /></flowRegion><flowPara
         id="flowPara4352"></flowPara></flowRoot>    <path
       style="fill:#000000;fill-rule:evenodd;stroke:#000000;stroke-width:1px;stroke-linecap:butt;stroke-linejoin:miter;stroke-opacity:1"
       d=""
       id="path4412"
       inkscape:path-effect="#path-effect4414"
       inkscape:original-d="M 275.06454,753.60959 Z"
       inkscape:connector-curvature="0" />
    <g
       style="stroke:#000000"
       id="g5457"
       transform="matrix(1,0,0,1.0059979,106.17928,38.827898)">
      <path
         sodipodi:nodetypes="cc"
         inkscape:connector-curvature="0"
         inkscape:original-d="m 247.41508,659.29013 6.15694,58.21982"
         inkscape:path-effect="#path-effect4144"
         id="path4142"
         d="m 247.41508,659.29013 6.15694,58.21982"
         style="fill:none;fill-rule:evenodd;stroke:#000000;stroke-width:0.94929272px;stroke-linecap:butt;stroke-linejoin:miter;stroke-opacity:1" />
      <path
         sodipodi:nodetypes="cc"
         inkscape:connector-curvature="0"
         inkscape:original-d="m 355.60092,716.7468 3.79522,-58.97441"
         inkscape:path-effect="#path-effect4158"
         id="path4156"
         d="m 355.60092,716.7468 3.79522,-58.97441"
         style="fill:none;fill-rule:evenodd;stroke:#000000;stroke-width:1.07397711px;stroke-linecap:butt;stroke-linejoin:miter;stroke-opacity:1" />
      <path
         sodipodi:nodetypes="ccc"
         inkscape:connector-curvature="0"
         inkscape:original-d="m 253.79566,717.12632 100.96996,0 0.4554,0"
         inkscape:path-effect="#path-effect4166"
         id="path4164"
         d="m 253.79566,717.12632 100.96996,0 0.4554,0"
         style="fill:none;fill-rule:evenodd;stroke:#000000;stroke-width:1.16993928px;stroke-linecap:butt;stroke-linejoin:miter;stroke-opacity:1" />
      <path
         sodipodi:nodetypes="csssc"
         inkscape:connector-curvature="0"
         inkscape:original-d="m 247.53099,660.24881 c -38.92475,-36.13481 -18.47945,-23.17339 -25.94984,-82.4816 -7.42235,-58.92672 79.47001,-162.54692 77.06313,-166.5343 -6.76123,-11.20109 75.37955,190.35282 72.345,202.27633 l -11.79537,46.34681"
         inkscape:path-effect="#path-effect4182"
         id="path4180"
         d="m 247.53099,660.24881 c -11.0786,-26.64966 -19.77442,-54.28934 -25.94984,-82.4816 -7.51462,-34.30603 -11.15219,-70.83159 0.38974,-104.0002 5.77097,-16.58431 15.38433,-32.00192 28.69474,-43.45514 13.3104,-11.45322 30.42192,-18.75573 47.97865,-19.07896 20.86501,-0.38414 41.29186,9.1638 56.01802,23.95016 14.72616,14.78635 24.00764,34.44581 28.33488,54.86078 8.65447,40.82994 -1.71386,83.01768 -12.0079,123.46539 l -11.79537,46.34681"
         style="fill:none;fill-rule:evenodd;stroke:#000000;stroke-width:1.07397711px;stroke-linecap:butt;stroke-linejoin:miter;stroke-opacity:1" />
      <path
         inkscape:connector-curvature="0"
         inkscape:original-d="m 379.24605,627.25618 58.58372,30.63602"
         inkscape:path-effect="#path-effect4186"
         id="path4184"
         d="m 379.24605,627.25618 58.58372,30.63602"
         style="fill:none;fill-rule:evenodd;stroke:#000000;stroke-width:5.03026247;stroke-linecap:round;stroke-linejoin:miter;stroke-miterlimit:4;stroke-dasharray:none;stroke-opacity:1" />
      <path
         inkscape:connector-curvature="0"
         inkscape:original-d="m 387.65865,593.80447 62.20384,23.30599"
         inkscape:path-effect="#path-effect4186-6"
         id="path4184-0"
         d="m 387.65865,593.80447 62.20384,23.30599"
         style="fill:none;fill-rule:evenodd;stroke:#000000;stroke-width:5.03026247;stroke-linecap:round;stroke-linejoin:miter;stroke-miterlimit:4;stroke-dasharray:none;stroke-opacity:1" />
      <path
         inkscape:connector-curvature="0"
         inkscape:original-d="M 396.26425,557.19992 464.84765,573.59"
         inkscape:path-effect="#path-effect4186-3"
         id="path4184-2"
         d="M 396.26425,557.19992 464.84765,573.59"
         style="fill:none;fill-rule:evenodd;stroke:#000000;stroke-width:5.03026247;stroke-linecap:round;stroke-linejoin:miter;stroke-miterlimit:4;stroke-dasharray:none;stroke-opacity:1" />
      <path
         inkscape:connector-curvature="0"
         inkscape:original-d="m 392.80005,480.96824 55.45966,-29.88793"
         inkscape:path-effect="#path-effect4186-1"
         id="path4184-5"
         d="m 392.80005,480.96824 55.45966,-29.88793"
         style="fill:none;fill-rule:evenodd;stroke:#000000;stroke-width:5.03026247;stroke-linecap:round;stroke-linejoin:miter;stroke-miterlimit:4;stroke-dasharray:none;stroke-opacity:1" />
      <path
         inkscape:connector-curvature="0"
         inkscape:original-d="m 399.69135,514.53131 62.90869,0"
         inkscape:path-effect="#path-effect4248"
         id="path4246"
         d="m 399.69135,514.53131 62.90869,0"
         style="fill:none;fill-rule:evenodd;stroke:#000000;stroke-width:5.03026247;stroke-linecap:round;stroke-linejoin:miter;stroke-miterlimit:4;stroke-dasharray:none;stroke-opacity:1" />
      <path
         inkscape:connector-curvature="0"
         inkscape:original-d="m 413.16694,404.51693 -32.84881,40.1403"
         inkscape:path-effect="#path-effect4186-37"
         id="path4184-07"
         d="m 413.16694,404.51693 -32.84881,40.1403"
         style="fill:none;fill-rule:evenodd;stroke:#000000;stroke-width:5.03026247;stroke-linecap:round;stroke-linejoin:miter;stroke-miterlimit:4;stroke-dasharray:none;stroke-opacity:1" />
      <path
         inkscape:connector-curvature="0"
         inkscape:original-d="m 342.44841,411.8494 28.77283,-46.00865"
         inkscape:path-effect="#path-effect4186-2"
         id="path4184-20"
         d="m 342.44841,411.8494 28.77283,-46.00865"
         style="fill:none;fill-rule:evenodd;stroke:#000000;stroke-width:5.03026247;stroke-linecap:round;stroke-linejoin:miter;stroke-miterlimit:4;stroke-dasharray:none;stroke-opacity:1" />
      <path
         inkscape:transform-center-y="0.4732075"
         inkscape:transform-center-x="-12.269415"
         inkscape:connector-curvature="0"
         inkscape:original-d="m 298.11675,351.48931 -0.49357,50.32006"
         inkscape:path-effect="#path-effect4186-8"
         id="path4184-05"
         d="m 298.11675,351.48931 -0.49357,50.32006"
         style="fill:none;fill-rule:evenodd;stroke:#000000;stroke-width:5.03026247;stroke-linecap:round;stroke-linejoin:miter;stroke-miterlimit:4;stroke-dasharray:none;stroke-opacity:1" />
      <path
         inkscape:connector-curvature="0"
         inkscape:original-d="m 231.56682,364.83038 23.2784,44.8872"
         inkscape:path-effect="#path-effect4186-61"
         id="path4184-3"
         d="m 231.56682,364.83038 23.2784,44.8872"
         style="fill:none;fill-rule:evenodd;stroke:#000000;stroke-width:5.03026247;stroke-linecap:round;stroke-linejoin:miter;stroke-miterlimit:4;stroke-dasharray:none;stroke-opacity:1" />
      <path
         inkscape:connector-curvature="0"
         inkscape:original-d="m 188.40565,398.2789 37.25574,38.47666"
         inkscape:path-effect="#path-effect4186-17"
         id="path4184-8"
         d="m 188.40565,398.2789 37.25574,38.47666"
         style="fill:none;fill-rule:evenodd;stroke:#000000;stroke-width:5.03026247;stroke-linecap:round;stroke-linejoin:miter;stroke-miterlimit:4;stroke-dasharray:none;stroke-opacity:1" />
      <path
         inkscape:connector-curvature="0"
         inkscape:original-d="m 149.03956,445.79664 58.58372,30.63602"
         inkscape:path-effect="#path-effect4186-24"
         id="path4184-58"
         d="m 149.03956,445.79664 58.58372,30.63602"
         style="fill:none;fill-rule:evenodd;stroke:#000000;stroke-width:5.03026247;stroke-linecap:round;stroke-linejoin:miter;stroke-miterlimit:4;stroke-dasharray:none;stroke-opacity:1" />
      <path
         inkscape:connector-curvature="0"
         inkscape:original-d="m 141.92598,506.57301 59.04962,0.59858"
         inkscape:path-effect="#path-effect4186-35"
         id="path4184-34"
         d="m 141.92598,506.57301 59.04962,0.59858"
         style="fill:none;fill-rule:evenodd;stroke:#000000;stroke-width:5.03026247;stroke-linecap:round;stroke-linejoin:miter;stroke-miterlimit:4;stroke-dasharray:none;stroke-opacity:1" />
      <path
         inkscape:transform-center-y="25.293149"
         inkscape:transform-center-x="-6.1546812"
         inkscape:connector-curvature="0"
         inkscape:original-d="m 138.79581,558.34634 65.43078,-9.5499"
         inkscape:path-effect="#path-effect4186-83"
         id="path4184-7"
         d="m 138.79581,558.34634 65.43078,-9.5499"
         style="fill:none;fill-rule:evenodd;stroke:#000000;stroke-width:5.03026247;stroke-linecap:round;stroke-linejoin:miter;stroke-miterlimit:4;stroke-dasharray:none;stroke-opacity:1" />
      <path
         inkscape:connector-curvature="0"
         inkscape:original-d="m 151.54255,606.86586 61.44134,-24.41913"
         inkscape:path-effect="#path-effect4186-88"
         id="path4184-52"
         d="m 151.54255,606.86586 61.44134,-24.41913"
         style="fill:none;fill-rule:evenodd;stroke:#000000;stroke-width:5.03026247;stroke-linecap:round;stroke-linejoin:miter;stroke-miterlimit:4;stroke-dasharray:none;stroke-opacity:1" />
      <path
         inkscape:transform-center-y="31.02879"
         inkscape:transform-center-x="-15.333993"
         inkscape:connector-curvature="0"
         inkscape:original-d="m 164.11456,654.63805 59.10173,-29.62652"
         inkscape:path-effect="#path-effect4186-7"
         id="path4184-4"
         d="m 164.11456,654.63805 59.10173,-29.62652"
         style="fill:none;fill-rule:evenodd;stroke:#000000;stroke-width:5.03026247;stroke-linecap:round;stroke-linejoin:miter;stroke-miterlimit:4;stroke-dasharray:none;stroke-opacity:1" />
      <text
         transform="scale(1.0005215,0.99947877)"
         sodipodi:linespacing="125%"
         id="text4354"
         y="609.92828"
         x="264.31912"
         style="font-style:normal;font-variant:normal;font-weight:normal;font-stretch:normal;font-size:193.31590271px;line-height:125%;font-family:'Book Antiqua';-inkscape-font-specification:'Book Antiqua, Normal';text-align:start;letter-spacing:0px;word-spacing:0px;writing-mode:lr-tb;text-anchor:start;fill:#000000;fill-opacity:1;stroke:#000000;stroke-width:1px;stroke-linecap:butt;stroke-linejoin:miter;stroke-opacity:1"
         xml:space="preserve"><tspan
           y="609.92828"
           x="264.31912"
           id="tspan4356"
           sodipodi:role="line">I</tspan></text>
      <path
         inkscape:connector-curvature="0"
         inkscape:original-d="m 258.08642,716.9068 0,72.10698 92.31724,-0.75903 -0.75982,-71.72746 -0.3799,1.13853"
         inkscape:path-effect="#path-effect4360"
         id="path4358"
         d="m 258.08642,716.9068 0,72.10698 92.31724,-0.75903 -0.75982,-71.72746 -0.3799,1.13853"
         style="fill:none;fill-rule:evenodd;stroke:#000000;stroke-width:1.07397711px;stroke-linecap:butt;stroke-linejoin:miter;stroke-opacity:1" />
      <path
         sodipodi:nodetypes="cc"
         inkscape:connector-curvature="0"
         inkscape:original-d="m 349.64384,718.42484 -92.31722,20.87307"
         inkscape:path-effect="#path-effect4364"
         id="path4362"
         d="m 349.64384,718.42484 -92.31722,20.87307"
         style="fill:none;fill-rule:evenodd;stroke:#000000;stroke-width:5.3698864;stroke-linecap:round;stroke-linejoin:miter;stroke-miterlimit:4;stroke-dasharray:none;stroke-opacity:1" />
      <path
         sodipodi:nodetypes="cc"
         inkscape:connector-curvature="0"
         inkscape:original-d="M 350.5936,739.10817 256.56681,762.2583"
         inkscape:path-effect="#path-effect4364-1"
         id="path4362-9"
         d="M 350.5936,739.10817 256.56681,762.2583"
         style="fill:none;fill-rule:evenodd;stroke:#000000;stroke-width:5.3698864;stroke-linecap:round;stroke-linejoin:miter;stroke-miterlimit:4;stroke-dasharray:none;stroke-opacity:1" />
      <path
         sodipodi:nodetypes="cc"
         inkscape:connector-curvature="0"
         inkscape:original-d="M 350.2137,760.36074 256.56681,782.9416"
         inkscape:path-effect="#path-effect4364-8"
         id="path4362-1"
         d="M 350.2137,760.36074 256.56681,782.9416"
         style="fill:none;fill-rule:evenodd;stroke:#000000;stroke-width:5.3698864;stroke-linecap:round;stroke-linejoin:miter;stroke-miterlimit:4;stroke-dasharray:none;stroke-opacity:1" />
      <path
         sodipodi:nodetypes="cc"
         inkscape:connector-curvature="0"
         inkscape:original-d="m 351.34288,778.99258 -54.30551,12.45214"
         inkscape:path-effect="#path-effect4364-2"
         id="path4362-5"
         d="m 351.34288,778.99258 -54.30551,12.45214"
         style="fill:none;fill-rule:evenodd;stroke:#000000;stroke-width:5.3698864;stroke-linecap:butt;stroke-linejoin:round;stroke-miterlimit:4;stroke-dasharray:none;stroke-opacity:1" />
      <path
         inkscape:connector-curvature="0"
         inkscape:original-d="m 258.08642,788.63426 42.1696,51.2339 8.35795,0 41.40977,-51.2339 0.37992,-0.37951"
         inkscape:path-effect="#path-effect4410"
         id="path4408"
         d="m 258.08642,788.63426 42.1696,51.2339 8.35795,0 41.40977,-51.2339 0.37992,-0.37951"
         style="fill:none;fill-rule:evenodd;stroke:#000000;stroke-width:1.07397711px;stroke-linecap:butt;stroke-linejoin:miter;stroke-opacity:1" />
      <path
         inkscape:connector-curvature="0"
         id="path4416"
         d="m 280.24228,814.46264 c -11.10032,-13.50393 -20.15736,-24.58478 -20.12675,-24.62411 0.0306,-0.0394 11.07872,-0.1642 24.55134,-0.27747 13.47262,-0.11324 33.36452,-0.31713 44.20423,-0.45306 13.37391,-0.16772 19.66249,-0.12238 19.56518,0.14103 -0.0789,0.2135 -9.11868,11.50268 -20.08847,25.08705 l -19.94507,24.69888 -3.98902,-0.0101 -3.98902,-0.0101 -20.18242,-24.55259 0,-10e-6 z"
         style="fill:#000000;stroke:#000000" />
      <path
         style="fill:none;stroke:#000000;stroke-width:5;stroke-miterlimit:4;stroke-dasharray:none"
         d="m 270.355,710.8763 c -0.0777,0.016 -0.47861,0.0883 -0.57031,0.14233 -0.0204,0.012 0.0861,0.0346 0.0625,0.0356 -0.47087,0.0258 -0.92663,-0.0925 -1.36719,0.17199 0.0809,-0.009 0.32524,0.014 0.24414,0.008 -0.723,-0.0576 -1.44431,0.005 -2.16016,0.11862 l 0,-0.002 c -1.72885,0.27448 -1.48652,1.99061 0.25,1.77124 0.48009,-0.0606 0.75778,-0.10607 1.22461,-0.12651 0.47339,-0.0208 0.59261,0.0735 1.10547,-0.0989 0.10347,-0.0348 0.18996,-0.10835 0.28516,-0.16209 -0.0275,0.0253 -0.10633,0.0466 -0.082,0.0751 0.0347,0.0407 0.1052,0.0101 0.1582,0.0139 0.43064,0.0308 0.77096,-0.12794 1.17774,-0.18978 0.70042,0.0703 1.40447,0.0625 2.10742,0.0553 0.82057,-0.0142 1.64226,-0.005 2.46289,-0.004 0.83485,-4.4e-4 1.66905,-0.002 2.5039,-0.002 0.90879,1.7e-4 1.81777,0.002 2.72657,0.002 0.13237,0.007 0.26518,-6.2e-4 0.39843,-0.004 -0.009,-0.007 -0.0184,-0.0129 -0.0273,-0.0197 0.0251,0.007 0.0522,0.0131 0.0781,0.0197 0.27576,-0.008 0.55291,-0.0188 0.82617,0.004 0.0194,0.002 0.84761,0.16188 0.84961,0.1621 0.1769,0.0258 0.3574,0.0386 0.53515,0.0573 0.40911,0.15866 -0.22088,-0.0762 0.57813,0.14431 0.026,0.008 -0.10298,-0.004 -0.0801,0.0101 0.35267,0.21995 0.74716,0.21118 1.14258,0.19964 0.32417,-0.003 0.7241,-0.11434 1.04687,-0.0475 0.0239,0.005 -0.0866,0.0252 -0.0644,0.0356 0.23581,0.1108 0.48707,0.18622 0.73047,0.27872 1.21509,0.4102 2.51554,0.72995 3.80078,0.49422 0.0161,-0.003 0.0971,-0.0296 0.14453,-0.0435 0.0585,0.0576 0.24098,0.0459 0.33985,0.0712 0.17283,0.044 0.35503,0.0459 0.52539,0.0989 0.0689,0.0215 0.11468,0.0893 0.17968,0.1206 0.37706,0.18164 0.4525,0.18071 0.84375,0.28071 0.36341,0.0767 0.68092,-0.0436 1.02735,-0.10478 0.0492,-0.009 0.18384,0.0198 0.21484,0.0217 0.41198,0.0237 0.826,0.014 1.23828,0.008 0.41255,0.003 0.82377,0.002 1.23633,0.002 1.15112,-4e-4 2.30201,-4e-5 3.45312,0 0.0871,-10e-6 0.25172,0.0876 0.26172,0 0.005,-0.0423 0.004,-0.068 0.008,-0.10871 0.0155,-0.0546 0.0288,-0.13373 0.0391,-0.23525 0.0279,0.11548 0.0447,0.21631 0.082,0.34396 0.0102,0.0348 0.814,0 0.9043,0 1.83407,-0.0372 3.65502,0.26851 5.45898,0.56934 0.3934,0.0736 0.78705,0.1547 1.18164,0.2214 0.36297,0.0613 0.85905,0.15609 1.20117,-0.0811 0.0787,6.8e-4 0.15725,-0.002 0.23438,0.0101 0.0439,0.006 -0.17341,-0.006 -0.13281,0.0119 0.30393,0.13752 0.5734,0.15427 0.89453,0.20163 0.17301,-0.0173 0.10225,-0.002 0.17773,-0.006 -0.10697,-0.0537 -0.20043,-0.13347 -0.30078,-0.19967 -1.46619,-0.96699 2.75712,0.008 1.39258,-1.1011 -0.32686,-0.26565 -0.58294,-0.5392 -1.04688,-0.46652 -0.39519,-0.0341 -0.45806,-0.12365 -0.89843,-0.22734 -0.30818,-0.0726 -0.83668,7.6e-4 -1.14258,-0.0315 -0.0117,0.0431 -0.0265,0.0855 -0.0391,0.12849 -0.86493,0.15089 -2.52404,0.65399 -1.23438,-0.22536 -1.89864,-0.31324 -3.81607,-0.6313 -5.74609,-0.59305 -0.0904,-1e-5 -0.8941,-0.0349 -0.9043,0 -0.0368,0.12547 -0.0544,0.22433 -0.082,0.33804 -0.0102,-0.0995 -0.0237,-0.17763 -0.0391,-0.2313 -0.004,-0.0401 -0.003,-0.0651 -0.008,-0.10674 -0.01,-0.0876 -0.17461,0 -0.26172,0 -1.02183,-2e-5 -2.04261,-2.4e-4 -3.06445,0 -0.068,0.1163 -0.15551,0.22722 -0.28711,0.31432 -0.17908,-0.0722 -0.38585,-0.12554 -0.64258,-0.13443 -0.13299,-0.005 -0.26534,-0.008 -0.39843,-0.006 -0.60082,0.0202 -1.2056,0.0732 -1.80274,-0.0276 -0.19018,-0.0197 -0.38162,-0.0275 -0.57226,-0.0375 -0.002,0.004 -0.012,0.004 -0.0137,0.008 -0.0127,-0.002 -0.0245,-0.0101 -0.0371,-0.0118 -0.32597,-0.0171 -0.65079,-0.0365 -0.97266,-0.10081 -0.80437,-0.16059 -0.45109,-0.15125 -1.18359,-0.34594 0.19405,-0.0467 0.39247,-0.0713 0.59375,-0.083 0.0277,0.007 0.15924,0.031 -0.83399,-0.10476 -0.0536,0.0172 -0.10816,0.0297 -0.16016,0.0514 -0.0195,0.008 -0.0301,0.0325 -0.0508,0.0375 -0.99334,0.22126 -2.01751,-0.0933 -2.95703,-0.39339 -0.35048,-0.13311 -0.87191,-0.35504 -1.25976,-0.427 -0.36948,-0.0687 -0.81129,0.0403 -1.1836,0.0494 -0.0361,0.007 -0.0713,0.0147 -0.10742,0.0217 0.0112,0.0114 0.0486,0.0296 0.0332,0.0336 -0.0276,0.006 -0.056,-0.0106 -0.082,-0.0217 -0.15707,-0.0678 -0.30569,-0.15819 -0.46679,-0.21548 -0.23777,-0.0846 -0.51717,-0.0122 -0.73829,-0.16802 -0.52414,-0.0464 -1.02977,-0.18402 -1.55468,-0.22734 -0.18724,-0.0155 -0.37744,-0.0101 -0.56641,-0.004 0.21802,0.006 0.43391,0.0362 0.63477,0.13641 0.0428,0.0213 0.0795,0.0524 0.11914,0.079 -0.30931,-0.0806 -0.61258,-0.16226 -0.8125,-0.21548 -0.21769,0.007 -0.4343,0.0162 -0.65039,0.004 -0.90872,4e-5 -1.81786,1.7e-4 -2.72657,0 -0.83386,-9e-5 -1.6681,-4.7e-4 -2.50195,0 -0.8277,-9.8e-4 -1.6548,-0.008 -2.48242,0.006 -0.80684,0.008 -1.6128,-0.04 -2.41797,-0.0258 z m 39.45703,4.52498 c 0.0102,0.005 0.0188,0.0132 0.0293,0.0178 0.0513,0.0221 0.29178,-0.0345 -0.0293,-0.0178 z m -30.12695,-2.8941 c 0.10217,5.9e-4 0.20471,-0.009 0.30664,0 0.33397,0.0288 0.56822,0.079 0.78906,0.13641 -0.52192,-0.002 -0.47332,-0.006 -0.69922,0.0237 -0.0488,-0.0365 -0.0976,-0.0723 -0.14648,-0.10872 -0.15741,-0.0303 -0.17942,-0.0354 -0.25,-0.0514 z m 28.65625,1.01413 c -0.009,-0.016 0.0528,9.8e-4 0.0508,0.0197 -0.002,0.0125 -0.004,0.025 -0.006,0.0375 -0.0134,-0.0197 -0.0333,-0.0373 -0.0449,-0.0573 z m -0.69336,0.39932 c -0.0916,0.28686 -0.16483,0.57793 -0.22266,0.87179 -0.11802,-0.18713 -0.24547,-0.36764 -0.16992,-0.55154 0.0663,-0.16152 0.22328,-0.24582 0.39258,-0.32025 z"
         id="path4563"
         inkscape:connector-curvature="0" />
      <path
         style="fill:none;stroke:#000000;stroke-width:5;stroke-miterlimit:4;stroke-dasharray:none"
         d="m 270.355,710.8763 c -0.0777,0.016 -0.47861,0.0883 -0.57031,0.14233 -0.0204,0.012 0.0861,0.0346 0.0625,0.0356 -0.47087,0.0258 -0.92663,-0.0925 -1.36719,0.17199 0.0809,-0.009 0.32524,0.014 0.24414,0.008 -0.723,-0.0576 -1.44431,0.005 -2.16016,0.11862 l 0,-0.002 c -1.72885,0.27448 -1.48652,1.99061 0.25,1.77124 0.48009,-0.0606 0.75778,-0.10607 1.22461,-0.12651 0.47339,-0.0208 0.59261,0.0735 1.10547,-0.0989 0.10347,-0.0348 0.18996,-0.10835 0.28516,-0.16209 -0.0275,0.0253 -0.10633,0.0466 -0.082,0.0751 0.0347,0.0407 0.1052,0.0101 0.1582,0.0139 0.43064,0.0308 0.77096,-0.12794 1.17774,-0.18978 0.70042,0.0703 1.40447,0.0625 2.10742,0.0553 0.82057,-0.0142 1.64226,-0.005 2.46289,-0.004 0.83485,-4.4e-4 1.66905,-0.002 2.5039,-0.002 0.90879,1.7e-4 1.81777,0.002 2.72657,0.002 0.42306,0.0242 0.8532,-0.0351 1.27539,0 0.0194,0.002 0.84761,0.16188 0.84961,0.1621 0.1769,0.0258 0.3574,0.0386 0.53515,0.0573 0.40911,0.15866 -0.22088,-0.0762 0.57813,0.14431 0.026,0.008 -0.10298,-0.004 -0.0801,0.0101 0.35267,0.21995 0.74716,0.21118 1.14258,0.19964 0.32417,-0.003 0.7241,-0.11434 1.04687,-0.0475 0.0239,0.005 -0.0866,0.0252 -0.0644,0.0356 0.23581,0.1108 0.48707,0.18622 0.73047,0.27872 1.21509,0.4102 2.51554,0.72995 3.80078,0.49422 0.0161,-0.003 0.0971,-0.0296 0.14453,-0.0435 0.0585,0.0576 0.24098,0.0459 0.33985,0.0712 0.17283,0.044 0.35503,0.0459 0.52539,0.0989 0.0689,0.0215 0.11468,0.0893 0.17968,0.1206 0.37706,0.18164 0.4525,0.18071 0.84375,0.28071 0.36341,0.0767 0.68092,-0.0436 1.02735,-0.10478 0.0492,-0.009 0.18384,0.0198 0.21484,0.0217 0.41198,0.0237 0.826,0.014 1.23828,0.008 0.41255,0.003 0.82377,0.002 1.23633,0.002 1.15112,-4e-4 2.30201,-4e-5 3.45312,0 0.0871,-10e-6 0.25172,0.0876 0.26172,0 0.005,-0.0423 0.004,-0.068 0.008,-0.10871 0.0155,-0.0546 0.0288,-0.13373 0.0391,-0.23525 0.0279,0.11548 0.0447,0.21631 0.082,0.34396 0.0102,0.0348 0.814,0 0.9043,0 1.83407,-0.0372 3.65502,0.26851 5.45898,0.56934 0.3934,0.0736 0.78705,0.1547 1.18164,0.2214 0.36297,0.0613 0.85905,0.15609 1.20117,-0.0811 0.0787,6.8e-4 0.15725,-0.002 0.23438,0.0101 0.0439,0.006 -0.17341,-0.006 -0.13281,0.0119 0.30393,0.13752 0.5734,0.15427 0.89453,0.20163 0.17301,-0.0173 0.10225,-0.002 0.17773,-0.006 -0.10697,-0.0537 -0.20043,-0.13347 -0.30078,-0.19967 -1.46619,-0.96699 2.75712,0.008 1.39258,-1.1011 -0.32686,-0.26565 -0.58294,-0.5392 -1.04688,-0.46652 -0.39519,-0.0341 -0.45806,-0.12365 -0.89843,-0.22734 -0.30818,-0.0726 -0.83668,7.6e-4 -1.14258,-0.0315 -0.0117,0.0431 -0.0265,0.0855 -0.0391,0.12849 -0.86493,0.15089 -2.52404,0.65399 -1.23438,-0.22536 -1.89864,-0.31324 -3.81607,-0.6313 -5.74609,-0.59305 -0.0904,-1e-5 -0.8941,-0.0349 -0.9043,0 -0.0368,0.12547 -0.0544,0.22433 -0.082,0.33804 -0.0102,-0.0995 -0.0237,-0.17763 -0.0391,-0.2313 -0.004,-0.0401 -0.003,-0.0651 -0.008,-0.10674 -0.01,-0.0876 -0.17461,0 -0.26172,0 -1.15143,-2e-5 -2.30168,-4.1e-4 -3.45312,0 -0.42109,9.8e-4 -0.84259,4e-5 -1.26367,-0.002 -0.36264,0.006 -0.72543,0.0152 -1.08789,-0.004 -0.17511,-0.0116 -0.89776,-0.0617 -0.97656,0.12256 -0.39077,-0.0576 -0.7557,-0.29951 -1.125,-0.42108 -0.0783,-0.0258 -0.1658,-0.009 -0.2461,-0.0276 -1.10298,-0.25375 1.57963,0.16339 -1.0625,-0.19768 -0.0536,0.0172 -0.10816,0.0297 -0.16016,0.0514 -0.0195,0.008 -0.0301,0.0325 -0.0508,0.0375 -0.99334,0.22126 -2.01751,-0.0933 -2.95703,-0.39338 -0.35048,-0.13311 -0.87191,-0.35505 -1.25976,-0.42701 -0.36948,-0.0687 -0.81129,0.0403 -1.1836,0.0494 -0.0361,0.007 -0.0713,0.0147 -0.10742,0.0217 0.0112,0.0114 0.0486,0.0296 0.0332,0.0336 -0.0276,0.006 -0.056,-0.0105 -0.082,-0.0217 -0.15707,-0.0678 -0.30569,-0.15819 -0.46679,-0.21548 -0.23777,-0.0846 -0.51717,-0.0121 -0.73829,-0.16802 -0.52414,-0.0464 -1.02977,-0.18402 -1.55468,-0.22734 -0.42225,-0.0349 -0.85227,0.024 -1.27539,0 -0.90872,4e-5 -1.81786,1.7e-4 -2.72657,0 -0.83386,-9e-5 -1.6681,-4.7e-4 -2.50195,0 -0.8277,-9.8e-4 -1.6548,-0.008 -2.48242,0.006 -0.80684,0.008 -1.6128,-0.04 -2.41797,-0.0258 z m 39.45703,4.52498 c 0.0102,0.005 0.0188,0.0132 0.0293,0.0178 0.0513,0.0221 0.29178,-0.0345 -0.0293,-0.0178 z m -12.43555,-2.59164 c 0.78917,0.11457 1.0564,0.93701 0.20508,1.5281 -0.0611,-0.0355 -0.13782,-0.06 -0.20898,-0.0889 -0.14077,-0.14234 -0.3612,-0.24711 -0.63477,-0.31828 0.0682,-0.32038 -0.0788,-0.66839 -0.48437,-0.87574 0.0405,-0.0201 0.0375,-0.0157 0.0859,-0.0396 0.39325,-0.19405 0.7489,-0.24743 1.0371,-0.20559 z m 10.96485,0.71167 c -0.009,-0.016 0.0528,9.8e-4 0.0508,0.0197 -0.002,0.0125 -0.004,0.025 -0.006,0.0375 -0.0134,-0.0197 -0.0333,-0.0373 -0.0449,-0.0573 z m -0.69336,0.39932 c -0.0916,0.28686 -0.16483,0.57793 -0.22266,0.87179 -0.11802,-0.18713 -0.24547,-0.36764 -0.16992,-0.55154 0.0663,-0.16152 0.22328,-0.24582 0.39258,-0.32025 z"
         id="path4566"
         inkscape:connector-curvature="0" />
      <path
         style="fill:none;stroke:#000000;stroke-width:5;stroke-miterlimit:4;stroke-dasharray:none"
         d="m 270.355,710.8763 c -0.0777,0.016 -0.47861,0.0883 -0.57031,0.14233 -0.0204,0.012 0.0861,0.0346 0.0625,0.0356 -0.47087,0.0258 -0.92663,-0.0925 -1.36719,0.17199 0.0809,-0.009 0.32524,0.014 0.24414,0.008 -0.723,-0.0576 -1.44431,0.005 -2.16016,0.11862 l 0,-0.002 c -1.72885,0.27448 -1.48652,1.99061 0.25,1.77124 0.48009,-0.0606 0.75778,-0.10607 1.22461,-0.12651 0.47339,-0.0208 0.59261,0.0735 1.10547,-0.0989 0.10347,-0.0348 0.18996,-0.10835 0.28516,-0.16209 -0.0275,0.0253 -0.10633,0.0466 -0.082,0.0751 0.0347,0.0407 0.1052,0.0101 0.1582,0.0139 0.43064,0.0308 0.77096,-0.12794 1.17774,-0.18978 0.70042,0.0703 1.40447,0.0625 2.10742,0.0553 0.82057,-0.0142 1.64226,-0.005 2.46289,-0.004 0.83485,-4.4e-4 1.66905,-0.002 2.5039,-0.002 0.90879,1.7e-4 1.81777,0.002 2.72657,0.002 0.14729,0.008 0.29502,3.6e-4 0.44336,-0.004 -0.0208,-0.006 -0.0514,-0.014 -0.0723,-0.0197 -0.008,-0.006 -0.0156,-0.0118 -0.0234,-0.0178 -0.0384,-5e-5 -0.0182,1.5e-4 -0.0508,0 -0.22067,-0.0578 -0.45304,-0.10739 -0.78906,-0.1364 -0.10193,-0.009 -0.20447,5.8e-4 -0.30664,0 -0.18266,-0.0415 -0.26837,-0.0525 -0.56836,-0.0237 0.5506,-0.17461 0.008,-0.5811 -0.21094,-1.14855 -0.10455,-0.27654 -0.12869,-0.33934 -0.16601,-0.43885 -0.32743,-2e-5 -0.655,7e-5 -0.98243,0 -0.30464,-3e-5 -0.60942,-6e-5 -0.91406,0 0.008,0.0171 0.0163,0.0339 0.0234,0.0514 0.14031,0.34423 0.26301,0.69601 0.39453,1.04377 0.07,0.17804 0.13734,0.34244 0.20117,0.51595 l -0.43164,0 c -1.42922,0 -1.67106,-1.17721 -0.76172,-1.61111 -0.33783,10e-5 -0.67583,-2e-4 -1.01367,0 -0.8277,-9.8e-4 -1.6548,-0.008 -2.48242,0.006 -0.80684,0.008 -1.6128,-0.04 -2.41797,-0.0258 z m 10.77734,0.0158 c 0.28082,0.0743 0.54521,0.16833 1.14258,0.30247 0.57486,0.12908 1.15462,0.2291 1.73242,0.34396 0.47105,0.0908 0.8235,0.16077 1.20313,0.23526 -0.6665,0.0963 -0.94745,0.78218 -0.23438,1.4668 0.28367,-0.0268 0.59149,-0.0843 0.85547,-0.0297 0.0239,0.005 -0.0866,0.0252 -0.0644,0.0356 0.23581,0.11081 0.48707,0.18622 0.73047,0.27874 1.21509,0.41019 2.51554,0.72995 3.80078,0.4942 0.0161,-0.003 0.0971,-0.0296 0.14453,-0.0435 0.0585,0.0576 0.24098,0.0459 0.33985,0.0712 0.17283,0.044 0.35503,0.0459 0.52539,0.0989 0.0689,0.0214 0.11468,0.0893 0.17968,0.12059 0.37706,0.18164 0.4525,0.18071 0.84375,0.28071 0.36341,0.0767 0.68092,-0.0436 1.02735,-0.10478 0.0492,-0.009 0.18384,0.0198 0.21484,0.0217 0.41198,0.0237 0.826,0.014 1.23828,0.008 0.41255,0.003 0.82377,0.002 1.23633,0.002 1.15112,-4.1e-4 2.30201,-5e-5 3.45312,0 0.0871,-10e-6 0.25172,0.0876 0.26172,0 0.005,-0.0423 0.004,-0.068 0.008,-0.10873 0.0155,-0.0546 0.0288,-0.13372 0.0391,-0.23524 0.0279,0.11548 0.0447,0.21631 0.082,0.34397 0.0102,0.0348 0.814,0 0.9043,0 1.83407,-0.0372 3.65502,0.26849 5.45898,0.56933 0.3934,0.0736 0.78705,0.1547 1.18164,0.2214 0.36297,0.0613 0.85905,0.15608 1.20117,-0.0811 0.0787,6.9e-4 0.15725,-0.002 0.23438,0.0101 0.0439,0.006 -0.17341,-0.006 -0.13281,0.0118 0.30393,0.13752 0.5734,0.15427 0.89453,0.20164 0.17301,-0.0173 0.10225,-0.002 0.17773,-0.006 -0.10697,-0.0537 -0.20043,-0.13347 -0.30078,-0.19966 -1.46619,-0.96699 2.75712,0.008 1.39258,-1.1011 -0.32686,-0.26565 -0.58294,-0.5392 -1.04688,-0.46653 -0.39519,-0.0341 -0.45806,-0.12364 -0.89843,-0.22734 -0.30818,-0.0726 -0.83668,7.7e-4 -1.14258,-0.0315 -0.0117,0.0431 -0.0265,0.0855 -0.0391,0.12849 -0.86493,0.15088 -2.52404,0.65399 -1.23438,-0.22536 -1.89864,-0.31324 -3.81607,-0.63131 -5.74609,-0.59305 -0.0904,-1e-5 -0.8941,-0.0349 -0.9043,0 -0.0368,0.12547 -0.0544,0.22432 -0.082,0.33803 -0.0102,-0.0995 -0.0237,-0.17763 -0.0391,-0.23129 -0.004,-0.0401 -0.003,-0.065 -0.008,-0.10674 -0.01,-0.0876 -0.17461,0 -0.26172,0 -1.15143,-3e-5 -2.30168,-4.1e-4 -3.45312,0 -0.42109,9.8e-4 -0.84259,4e-5 -1.26367,-0.002 -0.36264,0.006 -0.72543,0.0152 -1.08789,-0.004 -0.17144,-0.0114 -0.85979,-0.0563 -0.96289,0.11466 0.19064,0.0101 0.38208,0.0178 0.57226,0.0375 0.59714,0.10081 1.20192,0.0478 1.80274,0.0276 0.13309,-0.002 0.26544,8.7e-4 0.39843,0.006 0.96085,0.0333 1.36832,0.58802 1.25586,1.07144 -0.1129,-0.0309 -0.21661,-0.068 -0.35351,-0.0811 -0.7565,-0.0718 -1.51426,-0.15925 -2.27539,-0.14235 -0.14561,0.003 -0.29068,0.0153 -0.43555,0.0258 -0.16629,-0.0683 -0.31118,-0.11752 -0.61719,-0.16012 -0.40152,-0.0554 -0.87412,0.0172 -1.2832,0.006 -0.091,0.008 -0.18288,0.005 -0.27148,0.0276 -0.003,8.6e-4 -0.002,0.003 -0.004,0.004 -0.0464,-0.006 -0.1114,-0.0189 -0.15625,-0.0237 -0.022,-0.009 -0.044,-0.0174 -0.0664,-0.0258 -0.15929,-0.0396 -0.31922,-0.0789 -0.47851,-0.11861 0.0192,0.0151 0.0697,0.0654 0.0469,0.0573 -0.0541,-0.0204 -0.0984,-0.0623 -0.15234,-0.0829 -0.42387,-0.16308 -0.61227,-0.2539 -1.01563,-0.1878 -0.13374,0.0189 -0.28633,0.0558 -0.42187,0.0435 -0.2283,-0.0208 -0.33973,-0.0903 -0.58008,-0.13838 -0.028,-0.005 -0.0556,0.005 -0.084,0.008 -0.48589,-0.27577 -0.27455,-0.1843 -1.05274,-0.38944 -0.0361,-0.009 0.11747,0.28582 -0.0801,0.079 -0.37988,-0.12982 -0.77283,-0.47114 -1.07617,-0.69584 -0.13311,-0.0986 -0.26086,-0.15934 -0.38867,-0.21943 0.53458,0.0933 1.06563,0.17337 1.74414,0.23326 0.15829,0.014 0.31756,0.006 0.47656,0.008 -0.38015,-0.0887 -0.75722,-0.19674 -1.11914,-0.31233 -0.35048,-0.1331 -0.87191,-0.35504 -1.25976,-0.427 -0.36948,-0.0687 -0.81129,0.0403 -1.1836,0.0494 -0.0361,0.007 -0.0713,0.0147 -0.10742,0.0217 0.0112,0.0114 0.0486,0.0296 0.0332,0.0336 -0.0276,0.006 -0.056,-0.0105 -0.082,-0.0217 -0.15707,-0.0678 -0.30569,-0.15819 -0.46679,-0.21547 -0.23777,-0.0846 -0.51717,-0.0121 -0.73829,-0.16803 -0.52414,-0.0464 -1.02977,-0.18401 -1.55468,-0.22733 -0.20725,-0.0171 -0.41774,-0.0112 -0.62696,-0.004 z m 28.67969,4.50917 c 0.0102,0.005 0.0188,0.0132 0.0293,0.0178 0.0513,0.0221 0.29178,-0.0345 -0.0293,-0.0178 z m -19.52539,-3.24596 c -0.0536,0.0172 -0.10816,0.0297 -0.16016,0.0514 -0.0195,0.008 -0.0301,0.0325 -0.0508,0.0375 -0.006,9.8e-4 -0.0131,5.8e-4 -0.0195,0.002 0.15291,0.0284 0.30666,0.0534 0.45703,0.0929 0.76757,0.20198 0.38344,0.1874 1.19727,0.34989 0.32187,0.0643 0.64669,0.0837 0.97266,0.10082 -0.37644,-0.0669 -0.73059,-0.29159 -1.08789,-0.40921 -0.0783,-0.0258 -0.1658,-0.009 -0.2461,-0.0276 -1.10298,-0.25376 1.57963,0.16339 -1.0625,-0.19768 z m 18.05469,1.366 c -0.009,-0.016 0.0528,9.8e-4 0.0508,0.0198 -0.002,0.0125 -0.004,0.025 -0.006,0.0375 -0.0134,-0.0196 -0.0333,-0.0373 -0.0449,-0.0573 z m -0.69336,0.39932 c -0.0916,0.28687 -0.16483,0.57794 -0.22266,0.87179 -0.11802,-0.18713 -0.24547,-0.36764 -0.16992,-0.55155 0.0663,-0.1615 0.22328,-0.2458 0.39258,-0.32024 z"
         id="path4569"
         inkscape:connector-curvature="0" />
      <path
         style="fill:none;stroke:#000000;stroke-width:5;stroke-miterlimit:4;stroke-dasharray:none"
         d="m 270.355,710.8763 c -0.0777,0.016 -0.47861,0.0883 -0.57031,0.14233 -0.0204,0.012 0.0861,0.0346 0.0625,0.0356 -0.47087,0.0258 -0.92663,-0.0925 -1.36719,0.17199 0.0809,-0.009 0.32524,0.014 0.24414,0.008 -0.723,-0.0576 -1.44431,0.005 -2.16016,0.11862 l 0,-0.002 c -1.72885,0.27448 -1.48652,1.99061 0.25,1.77124 0.48009,-0.0606 0.75778,-0.10607 1.22461,-0.12651 0.47339,-0.0208 0.59261,0.0735 1.10547,-0.0989 0.10347,-0.0348 0.18996,-0.10835 0.28516,-0.16209 -0.0275,0.0253 -0.10633,0.0466 -0.082,0.0751 0.0347,0.0407 0.1052,0.0101 0.1582,0.0139 0.43064,0.0308 0.77096,-0.12794 1.17774,-0.18978 0.70042,0.0703 1.40447,0.0625 2.10742,0.0553 0.82057,-0.0142 1.64226,-0.005 2.46289,-0.004 0.83485,-4.4e-4 1.66905,-0.002 2.5039,-0.002 0.90879,1.7e-4 1.81777,0.002 2.72657,0.002 0.42306,0.0242 0.8532,-0.0351 1.27539,0 0.0194,0.002 0.84761,0.16188 0.84961,0.1621 0.1769,0.0258 0.3574,0.0386 0.53515,0.0573 0.40911,0.15866 -0.22088,-0.0762 0.57813,0.14431 0.026,0.008 -0.10298,-0.004 -0.0801,0.0101 0.35267,0.21995 0.74716,0.21118 1.14258,0.19964 0.0596,-4.8e-4 0.12951,-0.0118 0.19336,-0.0178 -0.78848,-0.75835 -0.37479,-1.5348 0.4414,-1.49449 0.29204,0.0144 0.63328,0.13385 0.98633,0.39538 0.30334,0.2247 0.69629,0.56602 1.07617,0.69584 0.19755,0.20675 0.044,-0.0885 0.0801,-0.079 0.77819,0.20516 0.56685,0.11367 1.05274,0.38945 0.0284,-0.003 0.056,-0.0132 0.084,-0.008 0.24035,0.0481 0.35178,0.11768 0.58008,0.13839 0.13554,0.0123 0.28813,-0.0246 0.42187,-0.0435 0.40336,-0.0661 0.59176,0.0247 1.01563,0.18781 0.0539,0.0208 0.0983,0.0627 0.15234,0.083 0.0228,0.008 -0.0277,-0.0422 -0.0469,-0.0573 0.15929,0.0397 0.31922,0.0789 0.47851,0.11861 0.0224,0.008 0.0442,0.0168 0.0664,0.0258 -0.19041,-0.0207 -0.37926,-0.0345 -0.66211,-0.0573 -0.14624,-2.5e-4 -0.29334,-0.006 -0.43945,0 -0.80866,0.033 0.0854,0.0203 -0.45313,0.0534 -0.30404,0.0186 -0.6138,9.8e-4 -0.91797,-0.004 -0.68466,-0.0142 -1.36994,-0.006 -2.05468,-0.004 -0.054,-2e-5 -0.10809,6e-5 -0.16211,0 1.16378,0.38091 2.39826,0.66316 3.62109,0.43886 0.0161,-0.003 0.0971,-0.0296 0.14453,-0.0435 0.0585,0.0576 0.24098,0.0459 0.33985,0.0711 0.17283,0.044 0.35503,0.0459 0.52539,0.0989 0.0689,0.0215 0.11468,0.0894 0.17968,0.12059 0.37706,0.18164 0.4525,0.18071 0.84375,0.28071 0.36341,0.0767 0.68092,-0.0436 1.02735,-0.10478 0.0492,-0.009 0.18384,0.0197 0.21484,0.0217 0.41198,0.0237 0.826,0.014 1.23828,0.008 0.41255,0.003 0.82377,0.002 1.23633,0.002 0.49417,-1.7e-4 0.98825,0 1.48242,0 -0.0452,-0.0932 -0.1067,-0.18277 -0.19531,-0.26291 0.18983,0.0618 0.32888,0.15719 0.44336,0.26291 0.57426,4e-5 1.1484,-2e-5 1.72265,0 0.0871,-10e-6 0.25172,0.0876 0.26172,0 0.005,-0.0423 0.004,-0.068 0.008,-0.10872 0.0155,-0.0545 0.0288,-0.13372 0.0391,-0.23524 0.0279,0.11548 0.0447,0.21631 0.082,0.34396 0.0102,0.0348 0.814,0 0.9043,0 1.83407,-0.0372 3.65502,0.2685 5.45898,0.56934 0.3934,0.0735 0.78705,0.1547 1.18164,0.2214 0.36297,0.0613 0.85905,0.15608 1.20117,-0.0811 0.0787,6.9e-4 0.15725,-0.002 0.23438,0.0101 0.0439,0.006 -0.17341,-0.006 -0.13281,0.0118 0.30393,0.13752 0.5734,0.15427 0.89453,0.20164 0.17301,-0.0173 0.10225,-0.002 0.17773,-0.006 -0.10697,-0.0537 -0.20043,-0.13347 -0.30078,-0.19966 -1.46619,-0.96699 2.75712,0.008 1.39258,-1.1011 -0.32686,-0.26565 -0.58294,-0.5392 -1.04688,-0.46653 -0.39519,-0.0341 -0.45806,-0.12364 -0.89843,-0.22734 -0.30818,-0.0726 -0.83668,7.7e-4 -1.14258,-0.0315 -0.0117,0.0431 -0.0265,0.0855 -0.0391,0.12849 -0.86493,0.15088 -2.52404,0.65399 -1.23438,-0.22537 -1.89864,-0.31323 -3.81607,-0.6313 -5.74609,-0.59304 -0.0904,-1e-5 -0.8941,-0.0348 -0.9043,0 -0.0368,0.12547 -0.0544,0.22432 -0.082,0.33803 -0.0102,-0.0995 -0.0237,-0.17763 -0.0391,-0.23129 -0.004,-0.0401 -0.003,-0.065 -0.008,-0.10674 -0.01,-0.0876 -0.17461,0 -0.26172,0 -1.15143,-3e-5 -2.30168,-4.1e-4 -3.45312,0 -0.42109,9.8e-4 -0.84259,4e-5 -1.26367,-0.002 -0.36264,0.006 -0.72543,0.0152 -1.08789,-0.004 -0.17511,-0.0116 -0.89776,-0.0617 -0.97656,0.12256 -0.39077,-0.0576 -0.7557,-0.2995 -1.125,-0.42107 -0.0783,-0.0258 -0.1658,-0.009 -0.2461,-0.0276 -1.10298,-0.25375 1.57963,0.16339 -1.0625,-0.19768 -0.0536,0.0172 -0.10816,0.0297 -0.16016,0.0514 -0.0195,0.008 -0.0301,0.0325 -0.0508,0.0375 -0.99334,0.22127 -2.01751,-0.0933 -2.95703,-0.39338 -0.35048,-0.1331 -0.87191,-0.35505 -1.25976,-0.42701 -0.36948,-0.0687 -0.81129,0.0403 -1.1836,0.0494 -0.0361,0.007 -0.0713,0.0147 -0.10742,0.0217 0.0112,0.0114 0.0486,0.0296 0.0332,0.0336 -0.0276,0.006 -0.056,-0.0106 -0.082,-0.0217 -0.15707,-0.0678 -0.30569,-0.15819 -0.46679,-0.21547 -0.23777,-0.0846 -0.51717,-0.0122 -0.73829,-0.16803 -0.52414,-0.0464 -1.02977,-0.18401 -1.55468,-0.22733 -0.42225,-0.0348 -0.85227,0.024 -1.27539,0 -0.90872,4e-5 -1.81786,1.6e-4 -2.72657,0 -0.83386,-8e-5 -1.6681,-4.7e-4 -2.50195,0 -0.8277,-9.8e-4 -1.6548,-0.008 -2.48242,0.006 -0.80684,0.008 -1.6128,-0.04 -2.41797,-0.0258 z m 39.45703,4.52498 c 0.0102,0.005 0.0188,0.0132 0.0293,0.0178 0.0513,0.0221 0.29178,-0.0345 -0.0293,-0.0178 z m -1.4707,-1.87997 c -0.009,-0.016 0.0528,9.8e-4 0.0508,0.0197 -0.002,0.0125 -0.004,0.025 -0.006,0.0375 -0.0134,-0.0197 -0.0333,-0.0373 -0.0449,-0.0573 z m -15.89844,0.0435 c 0.21969,-0.009 0.43791,-0.0139 0.63867,0.0139 0.30601,0.0426 0.45127,0.0921 0.61719,0.16012 -0.18189,0.013 -0.36423,0.0261 -0.54687,0.0315 -0.32675,-0.0317 -0.67102,0.039 -0.9961,-0.0118 -0.059,-0.009 -0.10751,-0.0529 -0.16601,-0.0652 -0.19799,-0.0415 -0.32796,-0.0584 -0.4668,-0.0771 0.002,-9.8e-4 5.4e-4,-0.003 0.004,-0.004 0.0886,-0.0225 0.1805,-0.0191 0.27148,-0.0276 0.20454,0.006 0.42484,-0.0104 0.64453,-0.0197 z m 15.20508,0.35583 c -0.0916,0.28687 -0.16483,0.57793 -0.22266,0.87179 -0.11802,-0.18713 -0.24547,-0.36764 -0.16992,-0.55154 0.0663,-0.16152 0.22328,-0.24582 0.39258,-0.32025 z"
         id="path4572"
         inkscape:connector-curvature="0" />
      <path
         style="fill:none;stroke:#000000;stroke-width:5;stroke-miterlimit:4;stroke-dasharray:none"
         d="m 270.355,710.8763 c -0.0777,0.016 -0.47861,0.0883 -0.57031,0.14233 -0.0204,0.012 0.0861,0.0346 0.0625,0.0356 -0.47087,0.0258 -0.92663,-0.0925 -1.36719,0.17199 0.0809,-0.009 0.32524,0.014 0.24414,0.008 -0.723,-0.0576 -1.44431,0.005 -2.16016,0.11862 l 0,-0.002 c -1.72885,0.27448 -1.48652,1.99061 0.25,1.77124 0.48009,-0.0606 0.75778,-0.10607 1.22461,-0.12651 0.47339,-0.0208 0.59261,0.0735 1.10547,-0.0989 0.10347,-0.0348 0.18996,-0.10835 0.28516,-0.16209 -0.0275,0.0253 -0.10633,0.0466 -0.082,0.0751 0.0347,0.0407 0.1052,0.0101 0.1582,0.0139 0.43064,0.0308 0.77096,-0.12794 1.17774,-0.18978 0.70042,0.0703 1.40447,0.0625 2.10742,0.0553 0.82057,-0.0142 1.64226,-0.005 2.46289,-0.004 0.75996,-4e-4 1.51934,-0.002 2.2793,-0.002 -0.0873,-0.2299 -0.17735,-0.45259 -0.27149,-0.69189 -0.13152,-0.34776 -0.25422,-0.69954 -0.39453,-1.04377 -0.007,-0.0174 -0.0158,-0.0342 -0.0234,-0.0514 -0.52921,10e-5 -1.05868,-2.9e-4 -1.58789,0 -0.8277,-9.8e-4 -1.6548,-0.008 -2.48242,0.006 -0.80684,0.008 -1.6128,-0.04 -2.41797,-0.0257 z m 10.76563,0.0158 c -0.21313,0.007 -0.42516,0.016 -0.63672,0.004 -0.5826,2e-5 -1.16546,2e-5 -1.74805,0 0.0579,0.15155 0.0608,0.15011 0.16992,0.43885 0.21878,0.56745 0.76154,0.97393 0.21094,1.14855 0.4159,-0.04 0.25358,-0.0336 0.81836,0.0751 0.0488,0.0365 0.0977,0.0722 0.14648,0.10873 0.24,-0.0314 0.0965,-0.0246 0.75,-0.0237 0.0163,0.0124 0.0325,0.0251 0.0488,0.0375 0.29329,-0.007 0.58817,-0.0203 0.87891,0.004 0.0194,0.002 0.84761,0.16188 0.84961,0.16209 0.1769,0.0257 0.3574,0.0386 0.53515,0.0573 0.40911,0.15865 -0.22088,-0.0762 0.57813,0.14431 0.026,0.008 -0.10298,-0.004 -0.0801,0.0101 0.35267,0.21996 0.74716,0.2112 1.14258,0.19966 0.32417,-0.003 0.7241,-0.11435 1.04687,-0.0475 0.0239,0.005 -0.0866,0.0252 -0.0644,0.0355 0.23581,0.11081 0.48707,0.18623 0.73047,0.27874 0.0596,0.0202 0.12165,0.0358 0.18164,0.0553 0.0534,6e-5 0.10679,-3e-5 0.16016,0 0.68474,-0.002 1.37002,-0.0102 2.05468,0.004 0.30417,0.005 0.61393,0.0225 0.91797,0.004 0.53854,-0.0331 -0.35553,-0.0204 0.45313,-0.0534 0.14611,-0.006 0.29321,-2.5e-4 0.43945,0 0.54891,0.0444 0.74025,0.044 1.28516,0.15815 0.0585,0.0122 0.10702,0.0559 0.16601,0.0652 0.32508,0.0508 0.66935,-0.02 0.9961,0.0118 0.32812,-0.0101 0.65399,-0.05 0.98242,-0.0573 0.76113,-0.017 1.51889,0.0705 2.27539,0.14233 0.61372,0.0582 0.97115,0.31774 1.11719,0.61875 0.65825,10e-6 1.31636,-2e-5 1.9746,0 0.0871,-10e-6 0.25172,0.0876 0.26172,0 0.005,-0.0423 0.004,-0.0681 0.008,-0.10873 0.0155,-0.0545 0.0288,-0.13372 0.0391,-0.23524 0.0279,0.11548 0.0447,0.21632 0.082,0.34397 0.0102,0.0348 0.814,0 0.9043,0 1.83407,-0.0372 3.65502,0.26849 5.45898,0.56933 0.3934,0.0736 0.78705,0.1547 1.18164,0.2214 0.36297,0.0613 0.85905,0.15608 1.20117,-0.0811 0.0787,6.9e-4 0.15725,-0.002 0.23438,0.0101 0.0439,0.006 -0.17341,-0.006 -0.13281,0.0119 0.30393,0.13753 0.5734,0.15427 0.89453,0.20164 0.17301,-0.0173 0.10225,-0.002 0.17773,-0.006 -0.10697,-0.0537 -0.20043,-0.13347 -0.30078,-0.19966 -1.46619,-0.96699 2.75712,0.008 1.39258,-1.1011 -0.32686,-0.26565 -0.58294,-0.53919 -1.04688,-0.46653 -0.39519,-0.0341 -0.45806,-0.12364 -0.89843,-0.22733 -0.30818,-0.0726 -0.83668,7.6e-4 -1.14258,-0.0315 -0.0117,0.0431 -0.0265,0.0855 -0.0391,0.12849 -0.86493,0.15088 -2.52404,0.65399 -1.23438,-0.22536 -1.89864,-0.31324 -3.81607,-0.63131 -5.74609,-0.59305 -0.0904,-10e-6 -0.8941,-0.0349 -0.9043,0 -0.0368,0.12547 -0.0544,0.22432 -0.082,0.33803 -0.0102,-0.0995 -0.0237,-0.17763 -0.0391,-0.23129 -0.004,-0.0401 -0.003,-0.065 -0.008,-0.10674 -0.01,-0.0876 -0.17461,0 -0.26172,0 -1.15143,-3e-5 -2.30168,-4.1e-4 -3.45312,0 -0.42109,9.8e-4 -0.84259,4e-5 -1.26367,-0.002 -0.36264,0.006 -0.72543,0.0152 -1.08789,-0.004 -0.17511,-0.0116 -0.89776,-0.0617 -0.97656,0.12256 -0.39077,-0.0576 -0.7557,-0.2995 -1.125,-0.42107 -0.0783,-0.0259 -0.1658,-0.009 -0.2461,-0.0276 -1.10298,-0.25375 1.57963,0.16339 -1.0625,-0.19768 -0.0536,0.0172 -0.10816,0.0297 -0.16016,0.0514 -0.0195,0.008 -0.0301,0.0325 -0.0508,0.0375 -0.99334,0.22127 -2.01751,-0.0933 -2.95703,-0.39339 -0.35048,-0.1331 -0.87191,-0.35503 -1.25976,-0.427 -0.36948,-0.0687 -0.81129,0.0403 -1.1836,0.0494 -0.0361,0.007 -0.0713,0.0147 -0.10742,0.0217 0.0112,0.0114 0.0486,0.0296 0.0332,0.0336 -0.0276,0.006 -0.056,-0.0106 -0.082,-0.0217 -0.15707,-0.0678 -0.30569,-0.15818 -0.46679,-0.21547 -0.23777,-0.0846 -0.51717,-0.0122 -0.73829,-0.16802 -0.52414,-0.0464 -1.02977,-0.18402 -1.55468,-0.22734 -0.21113,-0.0174 -0.42555,-0.0114 -0.63867,-0.004 z m 28.6914,4.50917 c 0.0102,0.005 0.0188,0.0132 0.0293,0.0178 0.0513,0.0221 0.29178,-0.0345 -0.0293,-0.0178 z m -1.4707,-1.87996 c -0.009,-0.016 0.0528,9.8e-4 0.0508,0.0198 -0.002,0.0125 -0.004,0.025 -0.006,0.0375 -0.0134,-0.0196 -0.0333,-0.0373 -0.0449,-0.0573 z m -0.69336,0.39932 c -0.0916,0.28687 -0.16483,0.57794 -0.22266,0.87179 -0.11802,-0.18713 -0.24547,-0.36764 -0.16992,-0.55155 0.0663,-0.1615 0.22328,-0.2458 0.39258,-0.32024 z"
         id="path4575"
         inkscape:connector-curvature="0" />
      <path
         style="fill:none;stroke:#000000;stroke-width:5;stroke-miterlimit:4;stroke-dasharray:none"
         d="m 270.355,710.8763 c -0.0777,0.016 -0.47861,0.0883 -0.57031,0.14233 -0.0204,0.012 0.0861,0.0346 0.0625,0.0356 -0.47087,0.0258 -0.92663,-0.0925 -1.36719,0.17199 0.0809,-0.009 0.32524,0.014 0.24414,0.008 -0.723,-0.0576 -1.44431,0.005 -2.16016,0.11862 l 0,-0.002 c -1.72885,0.27448 -1.48652,1.99061 0.25,1.77124 0.48009,-0.0606 0.75778,-0.10607 1.22461,-0.12651 0.47339,-0.0208 0.59261,0.0735 1.10547,-0.0989 0.10347,-0.0348 0.18996,-0.10835 0.28516,-0.16209 -0.0275,0.0253 -0.10633,0.0466 -0.082,0.0751 0.0347,0.0407 0.1052,0.0101 0.1582,0.0139 0.43064,0.0308 0.77096,-0.12794 1.17774,-0.18978 0.70042,0.0703 1.40447,0.0625 2.10742,0.0553 0.82057,-0.0142 1.64226,-0.005 2.46289,-0.004 0.83485,-4.4e-4 1.66905,-0.002 2.5039,-0.002 0.90879,1.7e-4 1.81777,0.002 2.72657,0.002 0.42306,0.0242 0.8532,-0.0351 1.27539,0 0.0194,0.002 0.84761,0.16188 0.84961,0.1621 0.1769,0.0258 0.3574,0.0386 0.53515,0.0573 0.40911,0.15866 -0.22088,-0.0762 0.57813,0.14431 0.026,0.008 -0.10298,-0.004 -0.0801,0.0101 0.35267,0.21995 0.74716,0.21118 1.14258,0.19964 0.32417,-0.003 0.7241,-0.11434 1.04687,-0.0475 0.0239,0.005 -0.0866,0.0252 -0.0644,0.0356 0.23581,0.1108 0.48707,0.18622 0.73047,0.27872 1.21509,0.4102 2.51554,0.72995 3.80078,0.49422 0.0161,-0.003 0.0971,-0.0296 0.14453,-0.0435 0.0585,0.0576 0.24098,0.0459 0.33985,0.0712 0.17283,0.044 0.35503,0.0459 0.52539,0.0989 0.0689,0.0215 0.11468,0.0893 0.17968,0.1206 0.37706,0.18164 0.4525,0.18071 0.84375,0.28071 0.36341,0.0767 0.68092,-0.0436 1.02735,-0.10478 0.0492,-0.009 0.18384,0.0198 0.21484,0.0217 0.41198,0.0237 0.826,0.014 1.23828,0.008 0.41255,0.003 0.82377,0.002 1.23633,0.002 1.15112,-4e-4 2.30201,-4e-5 3.45312,0 0.0871,-10e-6 0.25172,0.0876 0.26172,0 0.005,-0.0423 0.004,-0.068 0.008,-0.10871 0.0155,-0.0546 0.0288,-0.13373 0.0391,-0.23525 0.0279,0.11548 0.0447,0.21631 0.082,0.34396 0.0102,0.0348 0.814,0 0.9043,0 1.83407,-0.0372 3.65502,0.26851 5.45898,0.56934 0.3934,0.0736 0.78705,0.1547 1.18164,0.2214 0.36297,0.0613 0.85905,0.15609 1.20117,-0.0811 0.0787,6.8e-4 0.15725,-0.002 0.23438,0.0101 0.0439,0.006 -0.17341,-0.006 -0.13281,0.0119 0.30393,0.13752 0.5734,0.15427 0.89453,0.20163 0.17301,-0.0173 0.10225,-0.002 0.17773,-0.006 -0.10697,-0.0537 -0.20043,-0.13347 -0.30078,-0.19967 -1.46619,-0.96699 2.75712,0.008 1.39258,-1.1011 -0.32686,-0.26565 -0.58294,-0.5392 -1.04688,-0.46652 -0.39519,-0.0341 -0.45806,-0.12365 -0.89843,-0.22734 -0.30818,-0.0726 -0.83668,7.6e-4 -1.14258,-0.0315 -0.0117,0.0431 -0.0265,0.0855 -0.0391,0.12849 -0.86493,0.15089 -2.52404,0.65399 -1.23438,-0.22536 -1.89864,-0.31324 -3.81607,-0.6313 -5.74609,-0.59305 -0.0904,-1e-5 -0.8941,-0.0349 -0.9043,0 -0.0368,0.12547 -0.0544,0.22433 -0.082,0.33804 -0.0102,-0.0995 -0.0237,-0.17763 -0.0391,-0.2313 -0.004,-0.0401 -0.003,-0.0651 -0.008,-0.10674 -0.01,-0.0876 -0.17461,0 -0.26172,0 -1.15143,-2e-5 -2.30168,-4.1e-4 -3.45312,0 -0.42109,9.8e-4 -0.84259,4e-5 -1.26367,-0.002 -0.36264,0.006 -0.72543,0.0152 -1.08789,-0.004 -0.17511,-0.0116 -0.89776,-0.0617 -0.97656,0.12256 -0.39077,-0.0576 -0.7557,-0.29951 -1.125,-0.42108 -0.0783,-0.0258 -0.1658,-0.009 -0.2461,-0.0276 -1.10298,-0.25375 1.57963,0.16339 -1.0625,-0.19768 -0.0536,0.0172 -0.10816,0.0297 -0.16016,0.0514 -0.0195,0.008 -0.0301,0.0325 -0.0508,0.0375 -0.99334,0.22126 -2.01751,-0.0933 -2.95703,-0.39338 -0.35048,-0.13311 -0.87191,-0.35505 -1.25976,-0.42701 -0.36948,-0.0687 -0.81129,0.0403 -1.1836,0.0494 -0.0361,0.007 -0.0713,0.0147 -0.10742,0.0217 0.0112,0.0114 0.0486,0.0296 0.0332,0.0336 -0.0276,0.006 -0.056,-0.0105 -0.082,-0.0217 -0.15707,-0.0678 -0.30569,-0.15819 -0.46679,-0.21548 -0.23777,-0.0846 -0.51717,-0.0121 -0.73829,-0.16802 -0.52414,-0.0464 -1.02977,-0.18402 -1.55468,-0.22734 -0.42225,-0.0349 -0.85227,0.024 -1.27539,0 -0.90872,4e-5 -1.81786,1.7e-4 -2.72657,0 -0.83386,-9e-5 -1.6681,-4.7e-4 -2.50195,0 -0.8277,-9.8e-4 -1.6548,-0.008 -2.48242,0.006 -0.80684,0.008 -1.6128,-0.04 -2.41797,-0.0258 z m 39.45703,4.52498 c 0.0102,0.005 0.0188,0.0132 0.0293,0.0178 0.0513,0.0221 0.29178,-0.0345 -0.0293,-0.0178 z m -1.4707,-1.87997 c -0.009,-0.016 0.0528,9.8e-4 0.0508,0.0197 -0.002,0.0125 -0.004,0.025 -0.006,0.0375 -0.0134,-0.0197 -0.0333,-0.0373 -0.0449,-0.0573 z m -0.69336,0.39932 c -0.0916,0.28686 -0.16483,0.57793 -0.22266,0.87179 -0.11802,-0.18713 -0.24547,-0.36764 -0.16992,-0.55154 0.0663,-0.16152 0.22328,-0.24582 0.39258,-0.32025 z"
         id="path4578"
         inkscape:connector-curvature="0" />
      <rect
         y="345.17429"
         x="136.14513"
         height="496.41934"
         width="334.95123"
         id="rect5353"
         style="fill:none;fill-opacity:1;stroke:#000000;stroke-width:5;stroke-miterlimit:4;stroke-dasharray:none" />
    </g>
    <path
       style="fill:#ffff00;fill-opacity:1;stroke:#000000;stroke-width:4.38757324;stroke-linecap:round;stroke-linejoin:round;stroke-miterlimit:4;stroke-dasharray:none"
       d="m 360.26517,758.43765 c 0.009,-0.62521 -1.21927,-13.18062 -2.72848,-27.90093 -2.63908,-25.74062 -2.87209,-27.0998 -6.0927,-35.53935 -17.43772,-45.6953 -28.08293,-90.677 -29.4891,-124.60708 -1.94432,-46.9156 14.60774,-85.28298 45.31485,-105.03902 17.88565,-11.50709 38.10819,-14.62621 57.81057,-8.91668 33.86656,9.81414 58.27747,41.65751 64.60578,84.27647 1.81231,12.20529 1.79965,35.65157 -0.0271,50.21227 -2.11673,16.87189 -6.62121,37.92784 -16.27518,76.07753 l -8.79132,34.74071 -1.71116,26.02464 c -0.94114,14.31355 -1.71259,27.26753 -1.71433,28.78661 l -0.004,2.76196 -50.45709,0.1298 c -40.79725,0.10495 -50.45378,-0.0878 -50.44121,-1.00693 z m 70.62439,-108.744 0,-2.95959 -6.9198,-0.49004 c -9.2307,-0.6537 -9.83086,-1.4072 -10.61174,-13.32309 -0.32447,-4.95124 -0.46144,-30.60824 -0.30435,-57.01555 0.26564,-44.65818 0.39484,-48.12276 1.84898,-49.57958 1.15522,-1.15735 3.44624,-1.68083 8.77515,-2.00503 l 7.21176,-0.43876 0.25908,-3.0713 0.25906,-3.0713 -27.6814,-0.0231 -27.68141,-0.0231 0,3.31381 0,3.31382 6.48415,0 c 10.14758,0 10.43846,0.41355 11.19637,15.91808 0.8529,17.44775 0.80514,73.99836 -0.0754,89.25659 -0.90558,15.69258 -1.21785,16.16417 -11.0315,16.65974 l -6.57364,0.33195 -10e-5,3.19477 -1e-4,3.19477 27.42243,-0.11172 27.42244,-0.11172 0,-2.95958 z"
       id="path5495"
       inkscape:connector-curvature="0" />
    <path
       style="fill:#999999;fill-opacity:1;stroke:#000000;stroke-width:4.38757324;stroke-linecap:round;stroke-linejoin:round;stroke-miterlimit:4;stroke-dasharray:none"
       d="m 365.51471,770.55876 0,-8.43151 36.19748,0.0693 c 19.90862,0.0381 35.8026,0.2145 35.31997,0.39199 -0.48263,0.17749 -15.88302,3.72287 -34.22307,7.87863 -18.34006,4.15575 -34.23404,7.77354 -35.31997,8.03953 -1.9441,0.47619 -1.97441,0.35418 -1.97441,-7.94791 z"
       id="path5497"
       inkscape:connector-curvature="0" />
    <path
       style="fill:#999999;fill-opacity:1;stroke:#000000;stroke-width:4.38757324;stroke-linecap:round;stroke-linejoin:round;stroke-miterlimit:4;stroke-dasharray:none"
       d="m 365.51471,793.44915 0,-8.16626 44.53387,-10.10923 44.53387,-10.10924 0.25663,6.9768 c 0.14115,3.83725 0.10366,7.12978 -0.0833,7.31673 -0.30253,0.30252 -87.96897,22.25746 -88.87439,22.25746 -0.20169,0 -0.36671,-3.67482 -0.36671,-8.16626 z"
       id="path5499"
       inkscape:connector-curvature="0" />
    <path
       style="fill:#999999;fill-opacity:1;stroke:#000000;stroke-width:4.38757324;stroke-linecap:round;stroke-linejoin:round;stroke-miterlimit:4;stroke-dasharray:none"
       d="m 365.51471,830.21616 c 0,-1.23724 2.61819,-1.92046 66.4925,-17.35133 12.19791,-2.94679 22.34634,-5.18947 22.55209,-4.98373 0.20574,0.20574 0.6374,2.94432 0.95924,6.08574 l 0.58518,5.71167 -25.7698,5.91364 -25.7698,5.91365 -19.5247,-0.0275 c -16.18435,-0.0227 -19.52471,-0.23869 -19.52471,-1.26219 z"
       id="path5501"
       inkscape:connector-curvature="0" />
    <path
       style="fill:#999999;fill-opacity:1;stroke:#000000;stroke-width:4.38757324;stroke-linecap:round;stroke-linejoin:round;stroke-miterlimit:4;stroke-dasharray:none"
       d="m 365.51471,815.41405 0,-7.29514 7.67826,-1.88986 c 4.22304,-1.03942 24.37658,-6.0023 44.78565,-11.02864 l 37.1074,-9.13878 -0.25178,7.45115 -0.25179,7.45115 -42.1207,10.25133 c -23.16639,5.63824 -43.20663,10.53093 -44.53387,10.87264 l -2.41317,0.6213 0,-7.29515 z"
       id="path5509"
       inkscape:connector-curvature="0" />
    <path
       inkscape:export-xdpi="90"
       inkscape:export-ydpi="90"
       style="fill:#ffffff;fill-opacity:1;stroke:#000000;stroke-width:2.19378662;stroke-linecap:round;stroke-linejoin:round;stroke-miterlimit:4;stroke-dasharray:none"
       d="m 386.42174,859.76295 c -10.85924,-13.30461 -20.39369,-24.88536 -21.18766,-25.73499 -1.11924,-1.19771 -1.45166,-1.94577 -1.47951,-3.32945 -0.0322,-1.59658 -0.1549,-1.7919 -1.1648,-1.85327 -2.57251,-0.15632 -3.03233,-3.42598 -0.63825,-4.53835 l 1.41647,-0.65813 0.009,-7.78795 c 0.009,-7.28079 -0.0432,-7.78794 -0.8,-7.78794 -1.03732,0 -2.26179,-1.34769 -2.26179,-2.4894 0,-1.02483 1.08245,-2.0947 2.58312,-2.55311 1.01772,-0.31088 1.03953,-0.41391 0.76782,-3.62815 -0.1538,-1.8195 -0.27964,-5.79831 -0.27964,-8.84179 0,-5.31772 -0.0385,-5.5505 -0.9872,-5.96671 -1.26887,-0.55669 -1.54997,-2.61713 -0.51334,-3.76259 0.41747,-0.4613 0.98205,-0.83872 1.25463,-0.83872 0.35334,0 0.49124,-2.69955 0.48044,-9.40521 l -0.0152,-9.4052 -2.06202,-0.28559 c -1.13412,-0.15708 -2.30054,-0.57299 -2.59206,-0.92424 -0.29151,-0.35125 -0.80018,-3.34507 -1.13036,-6.65291 -3.53372,-35.40141 -4.86913,-46.89128 -5.90046,-50.76752 -0.25682,-0.96527 -1.85497,-5.5064 -3.55144,-10.09142 -15.45106,-41.75938 -24.96605,-80.45881 -27.77827,-112.98001 -0.91328,-10.56139 -0.70019,-28.41672 0.43984,-36.85562 3.22052,-23.83938 11.42758,-44.26794 24.06063,-59.89038 3.78391,-4.67929 11.46222,-12.0722 16.25212,-15.64801 10.5645,-7.88673 23.12999,-13.11555 35.77552,-14.8871 5.29288,-0.7415 17.08545,-0.26466 22.64744,0.91576 37.98888,8.06239 65.60761,42.2232 72.19049,89.29035 0.75173,5.37485 1.05643,32.2368 0.45578,40.18159 -1.41316,18.69185 -5.51164,38.65974 -18.67974,91.00809 l -7.17425,28.52045 -1.34521,20.83975 c -0.73986,11.46185 -1.55625,24.48672 -1.81418,28.94414 -0.25794,4.45742 -0.67852,8.35688 -0.93462,8.66546 -0.2561,0.30858 -1.23611,0.56106 -2.1778,0.56106 -1.40736,0 -1.78401,0.18896 -2.11574,1.06147 -0.22197,0.58382 -0.67091,1.2255 -0.99767,1.42596 -0.47518,0.29154 -0.55842,1.95041 -0.41589,8.28809 0.17077,7.59346 0.21737,7.94079 1.11822,8.33639 0.67471,0.29628 0.9784,0.87643 1.07603,2.05553 0.11516,1.39074 -0.0313,1.71901 -0.95493,2.13983 l -1.09096,0.49707 -0.0453,8.28066 c -0.0289,5.29379 0.11404,8.28067 0.39637,8.28067 0.2429,0 0.75638,0.48036 1.14106,1.06747 0.57681,0.88031 0.60448,1.24572 0.15783,2.0841 -0.29789,0.55914 -0.84054,1.23702 -1.20589,1.50639 -0.59241,0.43679 -0.58441,1.21079 0.074,7.15427 0.5419,4.89168 0.61218,6.90014 0.26417,7.5504 -0.27183,0.50792 -0.34998,1.62069 -0.18316,2.60808 0.18463,1.09282 0.12301,1.72219 -0.16862,1.72219 -0.27115,0 -0.51183,1.43329 -0.58701,3.4958 l -0.12743,3.49581 -20.80119,25.90094 -20.80118,25.90093 -4.42736,-0.0124 -4.42737,-0.0124 -19.74408,-24.19021 z m 48.66608,-1.78143 20.54363,-25.55762 -13.89726,-0.11588 c -7.64349,-0.0637 -14.82444,0.0703 -15.95767,0.29791 -1.35832,0.27279 3.06018,0.32749 12.96703,0.16053 11.96489,-0.20164 15.02744,-0.14004 15.02744,0.30227 0,0.30553 -8.82937,11.58893 -19.62083,25.0742 l -19.62084,24.51869 -3.96237,-0.0184 -3.96237,-0.0184 -9.87204,-12.13687 c -5.42962,-6.67528 -14.37774,-17.67433 -19.88471,-24.44233 l -10.01267,-12.30545 2.11504,-0.26014 c 2.11294,-0.25988 2.11228,-0.26021 -0.6638,-0.32907 l -2.77882,-0.0689 0.80442,1.0712 c 0.44243,0.58917 9.68925,11.93645 20.5485,25.21619 l 19.74408,24.14498 3.96981,0.0124 3.96981,0.0124 20.54362,-25.55761 0,-2e-5 z m 15.98174,-26.50256 5.33398,-0.2868 0,-2.7845 c 0,-2.2618 -0.13199,-2.7845 -0.70313,-2.7845 -0.82626,0 -25.75566,5.72044 -26.02451,5.97173 -0.29961,0.28005 15.63526,0.1937 21.39366,-0.11593 z m -23.84339,-7.20397 c 12.78978,-2.92023 24.01881,-5.50392 24.9534,-5.74153 l 1.69925,-0.43203 -0.30706,-3.58832 c -0.16888,-1.97357 -0.47412,-3.76071 -0.67832,-3.97141 -0.44505,-0.45922 -7.71407,1.19281 -43.21756,9.82206 -36.04393,8.7606 -34.88121,8.46528 -34.88121,8.85969 0,0.19169 6.56491,0.35135 14.58868,0.35479 l 14.58869,0.006 23.25413,-5.30951 0,3e-5 z m -30.26153,-11.32587 c 15.67858,-3.8336 34.50262,-8.4241 41.83119,-10.2011 12.06945,-2.92655 13.36109,-3.32661 13.71117,-4.24668 0.39793,-1.04586 0.55354,-9.73379 0.17434,-9.73379 -0.11667,0 -17.04722,4.14313 -37.62344,9.20695 -20.57622,5.06382 -39.68187,9.76335 -42.45701,10.4434 l -5.04571,1.23645 -0.12362,5.13248 c -0.0964,4.00318 0.003,5.13249 0.45148,5.13249 0.3163,0 13.40302,-3.13659 29.0816,-6.9702 z m 55.16101,-34.70524 c 0.68825,-0.006 0.76783,-0.55221 0.76783,-5.2716 0,-3.92663 -0.13943,-5.26172 -0.54845,-5.25183 -0.30164,0.007 -19.50276,4.32049 -42.66915,9.58489 l -42.1207,9.57163 -0.14363,2.59063 c -0.079,1.42485 -0.014,4.1941 0.14437,6.1539 l 0.288,3.56327 41.75696,-10.46719 c 22.96632,-5.75696 42.10247,-10.47012 42.52477,-10.4737 z m -57.5869,-7.93055 c 12.66912,-2.88195 23.42964,-5.4237 23.91228,-5.64835 0.55374,-0.25775 -8.71431,-0.41941 -25.11886,-0.43815 l -25.99637,-0.0297 0,5.44858 c 0,2.99672 0.11075,5.7372 0.24611,6.08995 0.19806,0.51614 0.60503,0.56094 2.0841,0.22946 1.01089,-0.22655 12.20362,-2.76987 24.87274,-5.6518 z m 46.94704,-8.07188 2.41316,-0.60223 -2.52285,-0.0373 c -1.96662,-0.0291 -2.52286,0.10779 -2.52286,0.62082 0,0.36197 0.0494,0.64976 0.10969,0.63954 0.0603,-0.0102 1.19562,-0.28959 2.52286,-0.62082 l 0,-2e-5 z m -1.63033,-4.91618 19.13525,-0.29051 0.22338,-2.23235 c 0.12286,-1.22779 0.43577,-6.08244 0.69537,-10.78811 0.2596,-4.70567 0.97314,-16.15724 1.58565,-25.44793 l 1.11366,-16.89215 7.85056,-31.43678 c 12.74971,-51.05499 16.52727,-69.52663 17.9677,-87.85925 0.57233,-7.28414 0.56552,-27.91095 -0.0114,-34.7078 -2.43996,-28.743 -15.32098,-56.35937 -33.88366,-72.6451 -10.18809,-8.93839 -22.57704,-15.22403 -35.5773,-18.05045 -6.46109,-1.40473 -20.03005,-1.40764 -26.31914,-0.006 -23.43594,5.22442 -43.32764,21.49083 -55.49897,45.38422 -6.14158,12.05647 -10.05826,25.3135 -12.22187,41.36816 -1.07958,8.01073 -1.07911,30.50805 8.3e-4,40.1463 3.59989,32.12851 12.74161,68.27735 26.96275,106.61803 5.00054,13.48161 4.92955,13.08564 8.22,45.85015 1.09056,10.85924 2.07123,19.98618 2.17927,20.28208 0.14217,0.3894 2.29202,0.57425 7.78278,0.66921 16.90872,0.29241 51.78494,0.31136 69.7952,0.038 l -1e-5,-2e-5 z"
       id="path5511"
       inkscape:connector-curvature="0" />
    <path
       style="fill:#ffffff;fill-opacity:1;stroke:#000000;stroke-width:4.38757324;stroke-linecap:round;stroke-linejoin:round;stroke-miterlimit:4;stroke-dasharray:none"
       d="m 244.8504,743.2195 0,-139.50812 1.9744,-0.43624 c 1.08593,-0.23994 15.99271,-2.46379 33.12618,-4.94189 17.13348,-2.4781 31.64538,-4.90439 32.24867,-5.39176 0.60329,-0.48737 1.09689,-1.38175 1.09689,-1.9875 0,-3.27184 -1.94967,-3.17523 -35.06229,1.73763 -17.95571,2.66405 -32.81259,4.84373 -33.0153,4.84373 -0.2027,0 -0.36251,-10.95797 -0.35512,-24.35104 0.008,-15.29241 0.3159,-23.87282 0.8265,-23.06551 0.68876,1.08898 5.61699,1.29022 32.23523,1.31627 l 31.42217,0.0308 0.29615,-2.09455 c 0.16289,-1.152 -0.232,-2.42932 -0.87751,-2.83849 -1.94428,-1.23239 -61.61624,-0.9645 -62.86296,0.28221 -0.81901,0.81901 -1.05301,-16.63378 -1.05301,-78.53757 l 0,-79.59058 164.97276,0 164.97276,0 0,247.02039 0,247.02038 -78.1506,0 c -62.28748,0 -78.01662,-0.22265 -77.49058,-1.09689 0.36301,-0.6033 9.34346,-11.92291 19.95654,-25.1547 l 19.29653,-24.0578 0.25642,-12.59565 c 0.14103,-6.92761 0.68912,-13.40415 1.21797,-14.39231 0.74233,-1.38706 0.64724,-2.27635 -0.4171,-3.90073 -1.88693,-2.87982 -1.93224,-14.65419 -0.0624,-16.20605 1.68611,-1.39935 1.673,-3.48778 -0.0372,-5.92947 -1.00077,-1.4288 -1.28663,-3.69163 -1.09689,-8.68279 0.24636,-6.48074 0.36169,-6.80851 2.88719,-8.20521 3.26163,-1.80381 3.28073,-1.92909 5.28161,-34.65974 l 1.50204,-24.57041 8.68915,-35.10059 c 9.56821,-38.65154 15.06352,-64.56099 16.60885,-78.30779 1.44168,-12.82483 0.61265,-48.63308 -1.32587,-57.26823 -2.17229,-9.67642 -6.9436,-23.50999 -10.64164,-30.85353 -12.89676,-25.61033 -34.45284,-43.74787 -58.87295,-49.53638 -8.73638,-2.07086 -25.40946,-2.06964 -33.12131,0.002 -23.97285,6.44115 -43.83961,22.76659 -56.07832,46.0822 -19.48288,37.11624 -19.38284,85.58602 0.31735,153.76956 1.93168,6.68566 6.59962,21.14092 10.3732,32.1228 3.77358,10.98188 7.1131,21.56263 7.42116,23.51277 0.30806,1.95014 1.74858,14.58635 3.20117,28.08047 2.71781,25.24774 3.09336,26.72854 6.77857,26.72854 1.79319,0 1.54389,13.15166 -0.32353,17.06769 -1.14927,2.41005 -1.26029,3.52306 -0.50624,5.07548 0.53122,1.09367 1.20724,5.29829 1.50226,9.3436 0.49116,6.73452 0.38579,7.46063 -1.24879,8.60553 -2.10504,1.47443 -2.31913,4.00294 -0.46893,5.53846 0.96296,0.79919 1.31627,2.91907 1.31627,7.89764 0,4.97856 -0.35331,7.09844 -1.31627,7.89763 -1.84858,1.53418 -1.63691,4.17246 0.43875,5.46873 0.96527,0.60282 1.76255,1.6921 1.77172,2.42061 0.009,0.72851 8.32969,11.39404 18.49003,23.70119 10.16034,12.30714 19.262,23.46255 20.2259,24.78979 l 1.75257,2.41312 -79.03608,0 -79.03607,0 0,-139.50812 z m 300.477,-40.03752 c 0.76343,-0.29295 1.38805,-1.42141 1.38805,-2.50767 0,-1.70299 -4.18525,-4.17397 -30.38343,-17.93849 -16.71089,-8.7799 -31.02535,-15.8412 -31.80991,-15.69179 -0.78456,0.14942 -1.55231,1.15343 -1.70611,2.23115 -0.21113,1.47951 0.53416,2.44458 3.04259,3.93985 4.31598,2.57274 56.72645,30.29444 57.49441,30.41077 0.3225,0.0489 1.21098,-0.15086 1.9744,-0.44382 z M 300.83621,685.37441 c 16.30768,-8.15659 30.1331,-15.41184 30.72313,-16.1228 1.67097,-2.01339 0.32165,-4.28623 -2.36017,-3.9755 -3.22667,0.37386 -60.62909,29.45003 -61.22952,31.01472 -0.70363,1.83364 0.28886,3.91373 1.86739,3.91373 0.74185,0 14.69148,-6.67356 30.99917,-14.83015 z m 257.89288,-24.33852 c 0.30298,-0.78955 0.18996,-2.00771 -0.25115,-2.70701 -0.81072,-1.28527 -61.88259,-24.75125 -64.52531,-24.79291 -1.87736,-0.0296 -3.55591,2.0553 -2.94223,3.65453 0.51882,1.35202 61.77242,25.02644 65.16587,25.1865 1.11063,0.0524 2.24722,-0.5447 2.55282,-1.34111 z M 290.91992,639.36002 c 28.79805,-11.65305 30.71301,-12.56396 30.71301,-14.6097 0,-1.44168 -0.56252,-2.2901 -1.65832,-2.50113 -2.17825,-0.4195 -64.38416,24.36936 -64.96742,25.8893 -0.8095,2.10952 0.50098,3.80476 2.88043,3.72612 1.27561,-0.0421 16.14014,-5.66922 33.0323,-12.50459 z m 282.83902,-23.169 c 0.19533,-1.37482 -0.33237,-2.23038 -1.75503,-2.84549 -2.64546,-1.14381 -67.81725,-16.6877 -69.96749,-16.6877 -3.34514,0 -3.13713,4.92322 0.24195,5.7267 1.03269,0.24554 16.29079,3.96264 33.9069,8.2602 17.61611,4.29757 33.21393,7.74591 34.66183,7.66299 2.00142,-0.11463 2.69951,-0.62209 2.91184,-2.1167 z m -4.40027,-56.95424 c 1.56122,-0.41815 1.96091,-1.06492 1.75503,-2.83994 l -0.2666,-2.29847 -33.50251,-0.22974 -33.50251,-0.22975 -0.60872,1.91791 c -1.28494,4.04848 0.27314,4.24632 33.33901,4.23345 16.92057,-0.007 31.6744,-0.25565 32.7863,-0.55346 z m -41.97952,-48.57253 c 15.11729,-8.2032 28.0216,-15.35942 28.67623,-15.90271 1.72834,-1.4344 1.45808,-4.07971 -0.47963,-4.69471 -1.89317,-0.60087 -58.72192,29.69527 -59.49869,31.71952 -0.52819,1.37645 1.23289,3.79279 2.76428,3.79279 0.5785,0 13.42051,-6.7117 28.53781,-14.91489 z m -211.12024,8.56937 c 0.7261,-1.153 0.64301,-1.82579 -0.3447,-2.79123 -2.22737,-2.17714 -59.93128,-32.18188 -61.36797,-31.90997 -0.7477,0.14152 -1.47765,1.26986 -1.62211,2.50743 -0.24764,2.12145 1.45858,3.16023 29.8355,18.16429 16.55398,8.75279 30.64815,15.83193 31.32037,15.73141 0.67222,-0.10051 1.65273,-0.86637 2.17891,-1.70193 z m 189.14075,-51.57045 c 17.12267,-21.01908 18.94719,-24.13165 14.14541,-24.13165 -1.75654,0 -5.32089,3.8611 -19.03666,20.6216 -15.79835,19.30539 -17.93259,22.44182 -16.34872,24.02568 2.13033,2.13034 5.23443,-0.86789 21.23997,-20.51563 z m -171.20906,10.8102 c 0.37492,-2.63344 -36.92521,-41.52321 -39.82594,-41.52321 -2.06952,0 -3.4101,2.12477 -2.40299,3.80863 0.33478,0.55973 9.11128,9.81977 19.50333,20.57786 19.25397,19.93215 22.02963,22.02519 22.7256,17.13672 z m 131.04136,-46.34954 c 8.11376,-13.03109 14.7613,-24.53913 14.77233,-25.57342 0.0211,-1.97611 -1.85093,-3.20588 -3.7094,-2.43681 -1.10964,0.45919 -29.80747,46.24675 -30.34672,48.41837 -0.40472,1.62986 1.6088,3.85253 3.20849,3.54177 0.72767,-0.14136 7.96155,-10.91882 16.0753,-23.94991 z m -101.56219,20.08495 c 0.54533,-1.4211 -22.49452,-47.50098 -24.41112,-48.82246 -1.66098,-1.14522 -3.57548,-0.27266 -3.86576,1.76187 -0.17211,1.20627 4.33532,10.93941 11.67924,25.21958 10.4714,20.36155 12.2143,23.25517 14.00725,23.25517 1.12625,0 2.29193,-0.63637 2.59039,-1.41416 z m 42.84062,-10.34461 c 0.38913,-1.8823 0.60266,-14.31582 0.47449,-27.63004 -0.21658,-22.49926 -0.34437,-24.22908 -1.81083,-24.51118 -3.98333,-0.76624 -4.12604,0.21335 -4.12604,28.32184 0,14.58077 0.27991,26.79041 0.62203,27.13252 0.34211,0.34212 1.41195,0.50665 2.37742,0.36563 1.25801,-0.18374 1.95588,-1.22612 2.46293,-3.67877 z"
       id="path5601"
       inkscape:connector-curvature="0"
       inkscape:export-xdpi="90"
       inkscape:export-ydpi="90" />
  </g>
</svg>
